<?xml version="1.0" encoding="utf-8"?>
<!-- Generator: Adobe Illustrator 26.0.3, SVG Export Plug-In . SVG Version: 6.00 Build 0)  -->
<svg version="1.1" id="fad3e099-5c23-49df-a3ba-c61a9948a26d"
	 xmlns="http://www.w3.org/2000/svg" xmlns:xlink="http://www.w3.org/1999/xlink" x="0px" y="0px" viewBox="0 0 1011 625.3"
	 style="enable-background:new 0 0 1011 625.3;" xml:space="preserve">
<style type="text/css">
	.st0{fill:#F1F1F1;}
	.st1{fill:#3F3D56;}
	.st2{fill:#2F2E41;}
	.st3{fill:#FFB8B8;}
	.st4{opacity:0.1;enable-background:new    ;}
	.st5{fill:#D0CDE1;}
	.st6{fill:#B7DD00;}
	.st7{fill:#FF4A00;}
</style>
<rect x="291.7" y="15.2" transform="matrix(0.2876 -0.9578 0.9578 0.2876 90.3416 685.9067)" class="st0" width="429" height="534"/>
<ellipse class="st1" cx="245" cy="599.3" rx="245" ry="26"/>
<rect x="208.3" y="68.6" class="st2" width="59.5" height="86.7"/>
<path class="st3" d="M219.8,108.5c0,0,2.2,42.8-17.5,44.5c-13.8,1.2,27,39.1,27,39.1l35.1-48.6c0,0-26.3,2.7-9.4-27L219.8,108.5z"/>
<path class="st4" d="M264.3,143.6L253.2,159l-24,33.2c0,0-20-18.6-27.3-30.2c-2.7-4.4-3.6-7.7-1-8.7c0,0,0,0,0,0
	c0.4-0.1,0.8-0.2,1.2-0.3c0,0,0,0,0.1,0c1.2-0.1,2.3-0.4,3.4-0.8c16.2-6,14.2-43.8,14.2-43.8l35.1,8.1c-11.2,19.8-3.3,25.2,3.3,26.6
	c1.4,0.3,2.9,0.5,4.4,0.5C263.6,143.7,264.3,143.6,264.3,143.6z"/>
<path class="st2" d="M274.6,73.4c-6.4,19-16.3,36.4-36.4,36.4S203,93.5,201.9,73.4c-1.4-25.6,15.8-36.5,36.4-36.4
	C262.5,37.2,282.3,50.8,274.6,73.4z"/>
<path class="st3" d="M188.7,382.6l9.4,66.1c0,0-8.1,40.5-4,68.8l4,29.7h18.9l5.4-31c0,0,5.4-32.4,5.4-47.2c0,0,14.8-67.5,5.4-81
	L188.7,382.6z"/>
<path class="st3" d="M303.5,378.5l-9.4,70.2c0,0,8.1,40.5,4,68.8l-4,29.7h-18.9l-5.4-31c0,0-5.4-32.4-5.4-47.2c0,0-14.8-71.5-5.4-85
	L303.5,378.5z"/>
<path class="st2" d="M284.6,543.2c0,0,10.8-4,12.1,1.3s4,33.7,4,33.7s8.1,12.1,13.5,13.5s17.5,18.9,2.7,20.2s-29.7-4-29.7-6.7
	s-5.4-4-8.1-4s-12.1-4-10.8-8.1s5.4-51.3,5.4-51.3L284.6,543.2z"/>
<path class="st2" d="M207.6,543.2c0,0-10.8-4-12.1,1.3s-4,33.7-4,33.7s-8.1,12.1-13.5,13.5s-17.5,18.9-2.7,20.2s29.7-4,29.7-6.7
	s5.4-4,8.1-4s12.1-4,10.8-8.1s-5.4-51.3-5.4-51.3L207.6,543.2z"/>
<circle class="st3" cx="240" cy="96.4" r="28"/>
<path class="st3" d="M345.3,250.3c0,0-56.7,24.3-62.1-1.4c-3.3-16-5.6-32.3-6.8-48.6c0,0,0,0,0,0c-0.8-0.5-28.7-17.6-23.2-41.3
	c1.3-5.1,3.7-9.9,7-14c0,0,0.8-0.5,2.2-1.3c1.7-0.9,3.4-1.7,5.1-2.3c9.5-3.6,25.4-5.7,29.1,18.5c5.4,35.1,5.4,72.9,5.4,72.9
	s16.2,9.5,37.8,0s43.2-4,44.5,8.1C385.8,253,345.3,250.3,345.3,250.3z"/>
<path class="st3" d="M202.2,153.1l-0.3,9l-3.2,101.1l-0.5,16.8l-47.2,52.7c0,0-9.4,28.3-29.7,32.4c-20.2,4,13.5-39.1,13.5-39.1
	l45.9-67.5l0.1-2.3c0.5-18.9-1.1-37.8-4.7-56.4c-1.3-6.9-1.6-14-0.8-21c1.9-15.1,14.3-21.6,21.6-24.2c1.3-0.5,2.7-0.9,4.1-1.2
	c0,0,0,0,0,0C201.6,153.2,202,153.1,202.2,153.1C202.2,153.1,202.2,153.1,202.2,153.1z"/>
<path class="st5" d="M277.8,250.3v5.4c-19.7,24.1-63.2,12.7-79.1,7.5c-3.7-1.2-5.9-2.1-5.9-2.1c0.8-1.7,1.3-3.5,1.4-5.4v-12.1
	c0-4,1.3-1.4,2.7-2.7s-4-9.5-4-9.5c-13.5-8.1-5.4-31-5.4-31l9.4-20.2v-25.5c1.3-0.5,2.7-0.9,4.1-1.2c0,0,0,0,0,0
	c0.4-0.1,0.8-0.2,1.2-0.3c0,0,0,0,0.1,0c1.2-0.1,2.3-0.4,3.4-0.8c2.5,5.2,8,12.1,19.6,12.9c13.8,1,26.9-13.9,33-22
	c1.4,0.3,2.9,0.5,4.4,0.5c1.7-0.9,3.4-1.7,5.1-2.3l-6,25.2c-5.3,13.3,14.2,33,14.8,33.7c0,0,0,0,0,0v14.9l-1.4,16.2l-1.4,4l2.7,4
	l-1.4,4l1.4,2.7C277.8,248.9,277.8,247.6,277.8,250.3z"/>
<path class="st2" d="M195.5,259.7l-4-1.3c0,0-48.6,121.5-16.2,126.9s56.7,14.8,62.1,5.4s2.7-43.2,2.7-43.2l5.4-1.3
	c0,0-9.4,49.9,9.4,45.9s71.5-10.8,71.5-16.2s-48.6-122-48.6-122S257.6,266.5,195.5,259.7z"/>
<circle class="st2" cx="238.3" cy="30.3" r="14.4"/>
<path class="st2" d="M221,22.7c0-7.4,5.6-13.5,12.9-14.3c-0.5,0-1-0.1-1.4-0.1c-7.9,0-14.4,6.4-14.4,14.4c0,7.9,6.4,14.4,14.4,14.4
	c0.5,0,1,0,1.4-0.1C226.6,36.2,221,30.1,221,22.7z"/>
<path class="st2" d="M226.7,60.4c0,0-0.3-1.7-12,2.7s-18.7,36.8-12.9,55.9c2.4,7.7,0.4,13.2-2.7,17.1c-11.8,14.5-7.1,36.4,10,43.8
	c0.5,0.2,1,0.4,1.5,0.6l7.3,4.4c0,0-9.3-12.3-4.7-28c4.1-13.4,4.6-27.6,1.5-41.3c-0.5-2.3-1.1-4.7-1.8-7.1
	c-5.9-20.5-3-18.1,17.5-38.7c0,0,11.7,8.8,22,13.2s19,8.8,11.7,23.4s-24.9,27.8-13.2,46.9s13.2,11.7,11.7,19l0,0l-1.5,7.3l8.8-8.8
	l-5.9,11.7c0,0,19,0,24.9-14.7l2.9,2.9c0,0,11.7-20.5-10.3-39.6c0,0-7.3-4.4,2.9-19s2.4-46.2-10.8-52S226.7,60.4,226.7,60.4z"/>
<path class="st6" d="M378.9,288.3l39.4-12.3c-2.2-16.4-7.2-32.3-14.7-47l-39.4,12.3C373.5,255.3,378.6,271.6,378.9,288.3z"/>
<rect x="457" y="3.3" class="st1" width="554" height="226"/>
<path class="st7" d="M536.6,87.5h-41.3c-2.8-16.3-2.8-33,0-49.2h41.3C532,54.3,532,71.4,536.6,87.5z"/>
<path class="st6" d="M572.4,108.4h41.3c2.8-16.3,2.8-33,0-49.2h-41.3C577,75.3,577,92.4,572.4,108.4z"/>
<path class="st0" d="M664.2,36.2c6.8,34.2,8.7,69.1,5.7,103.9c-0.8,9-1.9,18-3.4,27c-0.7,4.1-1.4,8.1-2.2,12.2
	c-0.4,2.3-1.4,5.2,0.1,7.4c2.8,4.3,12.6,3.1,16.9,3.3c8.9,0.3,17.9,0.3,26.8,0.5l26.9,0.5l13,0.2c4.4,0.1,9.2,0.8,13.6,0.2
	c5.8-0.7,4.4-6.8,4.3-11.3c-0.2-8.9-0.4-17.7-0.7-26.6c-1.2-35.1-3.4-70.2-6.6-105.2c-0.4-4.5-0.2-9.8-1.4-14.1
	c-0.5-1.7-1-2.3-2.9-2.6c-4.3-0.7-9.5,0-13.9,0.1l-14.7,0.1l-59.8,0.4c-0.8,0-1.5,0.7-1.4,1.6c0,0.8,0.7,1.4,1.4,1.4l49-0.3
	l21.6-0.1l11.8-0.1c2.4,0,4.7-0.7,6.2,1.9c1,1.7,0.6,5.9,0.7,7.8c2.9,31.4,5,62.8,6.4,94.3c0.3,7.9,0.6,15.8,0.8,23.6
	c0.1,3.3,0.2,6.6,0.3,9.8c0,2,0.1,3.9,0.1,5.9c0,2,0.9,6,0.1,7.9c-1.6,4-8.6,2.3-12,2.2l-12-0.2l-23.9-0.4l-23.9-0.4
	c-4-0.1-7.9-0.1-11.9-0.3c-1.3-0.1-2.6-0.1-3.9-0.2c-3.9-0.3-8.1,0.6-8.6-4.7c-0.3-3.3,1.5-7.9,2.1-11.2c0.6-3.8,1.2-7.5,1.7-11.3
	c1-7.1,1.8-14.1,2.3-21.2c2.7-34.4,0.7-69-6-102.8C666.7,33.5,663.8,34.3,664.2,36.2L664.2,36.2z"/>
<path class="st0" d="M861.2,36.2c6.8,34.2,8.7,69.1,5.7,103.9c-0.8,9-1.9,18-3.4,27c-0.7,4.1-1.4,8.1-2.2,12.2
	c-0.4,2.3-1.4,5.2,0.1,7.4c2.8,4.3,12.6,3.1,16.9,3.3c8.9,0.3,17.9,0.3,26.8,0.5l26.9,0.5l13,0.2c4.4,0.1,9.2,0.8,13.6,0.2
	c5.8-0.7,4.4-6.8,4.3-11.3c-0.2-8.9-0.4-17.7-0.7-26.6c-1.2-35.1-3.4-70.2-6.6-105.2c-0.4-4.5-0.2-9.8-1.4-14.1
	c-0.5-1.7-1-2.3-2.9-2.6c-4.3-0.7-9.5,0-13.9,0.1l-14.7,0.1l-59.8,0.4c-0.8,0-1.5,0.7-1.4,1.6c0,0.8,0.7,1.4,1.4,1.4l49-0.3
	l21.6-0.1l11.8-0.1c2.4,0,4.7-0.7,6.2,1.9c1,1.7,0.6,5.9,0.7,7.8c2.9,31.4,5,62.8,6.4,94.3c0.3,7.9,0.6,15.8,0.8,23.6
	c0.1,3.3,0.2,6.6,0.3,9.8c0,2,0.1,3.9,0.1,5.9c0,2,0.9,6,0.1,7.9c-1.6,4-8.6,2.3-12,2.2l-12-0.2l-23.9-0.4l-23.9-0.4
	c-4-0.1-7.9-0.1-11.9-0.3c-1.3-0.1-2.6-0.1-3.9-0.2c-3.9-0.3-8.1,0.6-8.6-4.7c-0.3-3.3,1.5-7.9,2.1-11.2c0.6-3.8,1.2-7.5,1.7-11.3
	c1-7.1,1.8-14.1,2.3-21.2c2.7-34.4,0.7-69-6-102.8C863.7,33.5,860.8,34.3,861.2,36.2L861.2,36.2z"/>
<path class="st0" d="M678,43.9h19.8c0.8,0,1.5-0.7,1.4-1.6c0-0.8-0.7-1.4-1.4-1.4H678c-0.8,0-1.5,0.7-1.4,1.6
	C676.6,43.3,677.2,43.9,678,43.9z"/>
<path class="st0" d="M678,50.7l18.7-0.7c1.9-0.1,1.9-3.1,0-3L678,47.7C676.1,47.8,676.1,50.8,678,50.7z"/>
<path class="st0" d="M678,56.4h18.1c0.8,0,1.5-0.7,1.4-1.6c0-0.8-0.7-1.4-1.4-1.4H678c-0.8,0-1.5,0.7-1.4,1.6
	C676.6,55.7,677.2,56.4,678,56.4z"/>
<path class="st0" d="M738.1,42.5c-4.1-2.1-7.8,1.4-8.3,5.4c-0.3,2-0.3,4.6,0.9,6.3c1.3,1.7,3.7,2.4,5.7,2.5c3.9,0.2,8-1.9,8.9-5.9
	c0.9-3.6-1-7.4-4.6-8.7c-1.8-0.6-2.6,2.3-0.8,2.9c1.7,0.7,2.8,2.5,2.6,4.4c-0.2,2.1-1.9,3.9-4,4.2c-2.5,0.6-5.4,0-5.9-2.8
	c-0.4-2.1,0.8-7.2,3.9-5.6C738.3,46,739.8,43.4,738.1,42.5L738.1,42.5z"/>
<path class="st0" d="M875,43.9h19.8c0.8,0,1.5-0.7,1.4-1.6c0-0.8-0.7-1.4-1.4-1.4H875c-0.8,0-1.5,0.7-1.4,1.6
	C873.6,43.3,874.2,43.9,875,43.9z"/>
<path class="st0" d="M875,50.7l18.7-0.7c1.9-0.1,1.9-3.1,0-3L875,47.7C873.1,47.8,873.1,50.8,875,50.7z"/>
<path class="st0" d="M875,56.4h18.1c0.8,0,1.5-0.7,1.4-1.6c0-0.8-0.7-1.4-1.4-1.4H875c-0.8,0-1.5,0.7-1.4,1.6
	C873.6,55.7,874.2,56.4,875,56.4z"/>
<path class="st0" d="M935.1,42.5c-4.1-2.1-7.8,1.4-8.3,5.4c-0.3,2-0.3,4.6,0.9,6.3c1.3,1.7,3.7,2.4,5.7,2.5c3.9,0.2,8-1.9,8.9-5.9
	c0.9-3.6-1-7.4-4.6-8.7c-1.8-0.6-2.6,2.3-0.8,2.9c1.7,0.7,2.8,2.5,2.6,4.4c-0.2,2.1-1.9,3.9-4,4.2c-2.5,0.6-5.4,0-5.9-2.8
	c-0.4-2.1,0.8-7.2,3.9-5.6C935.3,46,936.8,43.4,935.1,42.5L935.1,42.5z"/>
<path class="st0" d="M682,72.8c21.8,0.2,43.6-0.4,65.4-2l-1.4-1.9c-3.6,9-3.5,18.6-3,28.1c0.1,2.4,0.9,5.6,0.4,8
	c-0.6,3-3.3,2.3-6,2.4c-5.9,0.2-11.7,0.3-17.6,0.4c-5.5,0.1-11.1,0.1-16.6,0.1c-2.6,0-5.2,0-7.8-0.1c-3.1,0-6.5,0.9-7.3-2.7
	c-0.5-2.3,0-5.3,0-7.6l0-8.5l0-17.1c0-0.8-0.7-1.5-1.6-1.4c-0.8,0-1.4,0.7-1.4,1.4l0,20.9l0,9.5c0,1.9-0.4,4.2,0.3,6
	c1.6,4.1,8.6,2.6,12,2.6c6.8,0.1,13.7,0.1,20.5,0c6.8-0.1,13.7-0.2,20.5-0.5c2.9-0.1,7,0.6,7.9-3.1c0.6-2.5-0.1-5.9-0.2-8.5
	c-0.2-3-0.3-5.9-0.4-8.9c-0.1-6.9,0.6-13.7,3.2-20.2c0.2-0.8-0.3-1.6-1.1-1.8c-0.1,0-0.3-0.1-0.4-0.1c-21.8,1.6-43.6,2.3-65.4,2
	c-0.8,0-1.5,0.7-1.4,1.6C680.6,72.2,681.2,72.8,682,72.8L682,72.8z"/>
<path class="st0" d="M688.2,74.5c9.3,3.3,18.5,7.2,27.3,11.8c7.9,4.1,18.3,8.5,23.7,15.9c1.1,1.5,3.7,0,2.6-1.5
	c-5.6-7.5-15.1-11.8-23.2-16.1c-9.5-5-19.4-9.3-29.6-12.9C687.2,70.9,686.4,73.8,688.2,74.5L688.2,74.5z"/>
<path class="st0" d="M746.9,69.1c-9.9,4.2-18.3,12.4-27.2,18.5c-9.6,6.6-19.5,12.6-29.6,18.3c-1.7,0.9-0.2,3.5,1.5,2.6
	c10.1-5.7,20-11.8,29.6-18.3c8.9-6.1,17.3-14.2,27.2-18.5C750.2,71,748.6,68.4,746.9,69.1L746.9,69.1z"/>
<path class="st0" d="M879,72.8c21.8,0.2,43.6-0.4,65.4-2l-1.4-1.9c-3.6,9-3.5,18.6-3,28.1c0.1,2.4,0.9,5.6,0.4,8
	c-0.6,3-3.3,2.3-6,2.4c-5.9,0.2-11.7,0.3-17.6,0.4c-5.5,0.1-11.1,0.1-16.6,0.1c-2.6,0-5.2,0-7.8-0.1c-3.1,0-6.5,0.9-7.3-2.7
	c-0.5-2.3,0-5.3,0-7.6l0-8.5l0-17.1c0-0.8-0.7-1.5-1.6-1.4c-0.8,0-1.4,0.7-1.4,1.4l0,20.9l0,9.5c0,1.9-0.4,4.2,0.3,6
	c1.6,4.1,8.6,2.6,12,2.6c6.8,0.1,13.7,0.1,20.5,0c6.8-0.1,13.7-0.2,20.5-0.5c2.9-0.1,7,0.6,7.9-3.1c0.6-2.5-0.1-5.9-0.2-8.5
	c-0.2-3-0.3-5.9-0.4-8.9c-0.1-6.9,0.6-13.7,3.2-20.2c0.2-0.8-0.3-1.6-1.1-1.8c-0.1,0-0.3-0.1-0.4-0.1c-21.8,1.6-43.6,2.3-65.4,2
	c-0.8,0-1.5,0.7-1.4,1.6C877.6,72.2,878.2,72.8,879,72.8L879,72.8z"/>
<path class="st0" d="M885.2,74.5c9.3,3.3,18.5,7.2,27.3,11.8c7.9,4.1,18.3,8.5,23.7,15.9c1.1,1.5,3.7,0,2.6-1.5
	c-5.6-7.5-15.1-11.8-23.2-16.1c-9.5-5-19.4-9.3-29.6-12.9C884.2,70.9,883.4,73.8,885.2,74.5L885.2,74.5z"/>
<path class="st0" d="M943.9,69.1c-9.9,4.2-18.3,12.4-27.2,18.5c-9.6,6.6-19.5,12.6-29.6,18.3c-1.7,0.9-0.2,3.5,1.5,2.6
	c10.1-5.7,20-11.8,29.6-18.3c8.9-6.1,17.3-14.2,27.2-18.5C947.2,71,945.6,68.4,943.9,69.1L943.9,69.1z"/>
<path class="st0" d="M879,132.8c21.8,0.2,43.6-0.4,65.4-2l-1.4-1.9c-3.6,9-3.5,18.6-3,28.1c0.1,2.4,0.9,5.6,0.4,8
	c-0.6,3-3.3,2.3-6,2.4c-5.9,0.2-11.7,0.3-17.6,0.4c-5.5,0.1-11.1,0.1-16.6,0.1c-2.6,0-5.2,0-7.8-0.1c-3.1,0-6.5,0.9-7.3-2.7
	c-0.5-2.3,0-5.3,0-7.6l0-8.5l0-17.1c0-0.8-0.7-1.5-1.6-1.4c-0.8,0-1.4,0.7-1.4,1.4l0,20.9l0,9.5c0,1.9-0.4,4.2,0.3,6
	c1.6,4.1,8.6,2.6,12,2.6c6.8,0.1,13.7,0.1,20.5,0c6.8-0.1,13.7-0.2,20.5-0.5c2.9-0.1,7,0.6,7.9-3.1c0.6-2.5-0.1-5.9-0.2-8.5
	c-0.2-3-0.3-5.9-0.4-8.9c-0.1-6.9,0.6-13.7,3.2-20.2c0.2-0.8-0.3-1.6-1.1-1.8c-0.1,0-0.3-0.1-0.4-0.1c-21.8,1.6-43.6,2.3-65.4,2
	c-0.8,0-1.5,0.7-1.4,1.6C877.6,132.2,878.2,132.8,879,132.8L879,132.8z"/>
<path class="st0" d="M885.2,134.5c9.3,3.3,18.5,7.2,27.3,11.8c7.9,4.1,18.3,8.5,23.7,15.9c1.1,1.5,3.7,0,2.6-1.5
	c-5.6-7.5-15.1-11.8-23.2-16.1c-9.5-5-19.4-9.3-29.6-12.9C884.2,130.9,883.4,133.8,885.2,134.5z"/>
<path class="st0" d="M943.9,129.1c-9.9,4.2-18.3,12.4-27.2,18.5c-9.6,6.6-19.5,12.6-29.6,18.3c-1.7,0.9-0.2,3.5,1.5,2.6
	c10.1-5.7,20-11.8,29.6-18.3c8.9-6.1,17.3-14.2,27.2-18.5C947.2,131,945.6,128.4,943.9,129.1z"/>
<path class="st0" d="M687.6,130.6c20.2,0.3,40.4,0.2,60.7-0.2c1.9,0,1.9-3,0-3c-20.2,0.5-40.4,0.5-60.7,0.2c-0.8,0-1.5,0.7-1.4,1.6
	C686.2,129.9,686.9,130.6,687.6,130.6z"/>
<path class="st0" d="M689.3,144.2c20.8,0.3,41.6,0.2,62.4-0.3c1.9,0,1.9-3,0-3c-20.8,0.5-41.6,0.6-62.4,0.3
	C687.4,141.2,687.4,144.2,689.3,144.2z"/>
<path class="st0" d="M687.1,158.9l59-2.7c1.9-0.1,1.9-3.1,0-3l-59,2.7C685.2,156,685.1,159,687.1,158.9z"/>
<path class="st0" d="M778.9,116.5H835c0.8,0,1.5-0.7,1.4-1.6c0-0.8-0.7-1.4-1.4-1.4h-56.1c-0.8,0-1.5,0.7-1.4,1.6
	C777.5,115.8,778.1,116.5,778.9,116.5z"/>
<path class="st0" d="M832.6,99.3l8.8,8c1,0.9,3.8,2.8,4.4,4c1.3,2.5-0.1,1.9-2.3,2.8c-5.4,2.2-10.4,5.3-14.8,9.2
	c-1.5,1.3,0.7,3.4,2.1,2.1c4-3.6,8.5-6.4,13.4-8.4c1.8-0.7,5.1-1.1,6-3.2c1-2.6-2.2-4.5-3.8-5.9l-11.7-10.7
	C833.3,95.9,831.2,98,832.6,99.3L832.6,99.3z"/>
<path class="st6" d="M696.4,216.4h41.3c2.8-16.3,2.8-33,0-49.2h-41.3C701,183.3,701,200.4,696.4,216.4z"/>
<path class="st6" d="M524.4,179.4h41.3c2.8-16.3,2.8-33,0-49.2h-41.3C529,146.3,529,163.4,524.4,179.4z"/>
<path class="st6" d="M785.4,71.4h41.3c2.8-16.3,2.8-33,0-49.2h-41.3C790,38.3,790,55.4,785.4,71.4z"/>
</svg>
