<?xml version="1.0" encoding="utf-8"?>
<!-- Generator: Adobe Illustrator 26.0.3, SVG Export Plug-In . SVG Version: 6.00 Build 0)  -->
<svg version="1.1" id="a189424b-3b58-478f-967b-697f35446214"
	 xmlns="http://www.w3.org/2000/svg" xmlns:xlink="http://www.w3.org/1999/xlink" x="0px" y="0px" viewBox="0 0 883 800.9"
	 style="enable-background:new 0 0 883 800.9;" xml:space="preserve">
<style type="text/css">
	.st0{fill:#E6E6E6;}
	.st1{fill:#FFFFFF;}
	.st2{fill:#3F3D56;}
	.st3{fill:#F2F2F2;}
	.st4{fill:#CCCCCC;}
	.st5{fill:#FFB8B8;}
	.st6{fill:#2F2E41;}
	.st7{fill:#B7DD00;}
</style>
<path class="st0" d="M441.5,285.9L441.5,285.9c67.7,0,122.5,54.8,122.5,122.5c0,0,0,0,0,0v293.5l0,0H319l0,0V408.4
	C319,340.7,373.8,285.9,441.5,285.9z"/>
<rect x="377" y="433.1" class="st1" width="22" height="73"/>
<rect x="405" y="512.1" class="st1" width="73" height="66"/>
<rect x="405" y="433.1" class="st1" width="73" height="73"/>
<path class="st1" d="M484,427.1h22v-1.5c0-18.6-8-36.3-22-48.5V427.1z"/>
<path class="st1" d="M405,427.1h73v-54.7c-10.7-7.4-23.5-11.3-36.5-11.3l0,0c-13,0-25.8,3.9-36.5,11.3V427.1z"/>
<path class="st1" d="M399,512.1h-22v50c0,8.8,7.2,16,16,16h6V512.1z"/>
<path class="st1" d="M484,512.1v66h6c8.8,0,16-7.2,16-16v-50H484z"/>
<path class="st1" d="M399,427.1v-50c-14,12.2-22,29.9-22,48.5v1.5H399z"/>
<rect x="484" y="433.1" class="st1" width="22" height="73"/>
<circle class="st2" cx="546.5" cy="517.1" r="13"/>
<rect x="119.4" y="392.4" class="st3" width="17.3" height="57.3"/>
<rect x="141.4" y="392.4" class="st3" width="57.3" height="57.3"/>
<rect x="203.4" y="392.4" class="st3" width="17.3" height="57.3"/>
<path class="st3" d="M203.4,387.7h17.3v-1.2c0-14.6-6.3-28.5-17.3-38.1V387.7z"/>
<rect x="141.4" y="454.4" class="st3" width="57.3" height="51.8"/>
<path class="st3" d="M136.7,454.4h-17.3v39.2c0,6.9,5.6,12.6,12.6,12.6h4.7L136.7,454.4z"/>
<path class="st3" d="M203.4,454.4v51.8h4.7c6.9,0,12.6-5.6,12.6-12.6c0,0,0,0,0,0v-39.2H203.4z"/>
<path class="st3" d="M136.7,387.7v-39.2c-11,9.6-17.3,23.5-17.3,38.1v1.2L136.7,387.7z"/>
<path class="st3" d="M141.4,387.7h57.3v-42.9c-8.4-5.8-18.4-8.9-28.6-8.9l0,0c-10.2,0-20.2,3.1-28.6,8.9L141.4,387.7z"/>
<path class="st0" d="M243.2,512.4h-146c-1.9,0-3.5-1.6-3.5-3.5v-9.4c0-1.9,1.6-3.5,3.5-3.5h146c1.9,0,3.5,1.6,3.5,3.5v9.4
	C246.7,510.9,245.1,512.4,243.2,512.4z"/>
<rect x="662.4" y="392.4" class="st3" width="17.3" height="57.3"/>
<rect x="684.4" y="392.4" class="st3" width="57.3" height="57.3"/>
<rect x="746.4" y="392.4" class="st3" width="17.3" height="57.3"/>
<path class="st3" d="M746.4,387.7h17.3v-1.2c0-14.6-6.3-28.5-17.3-38.1V387.7z"/>
<rect x="684.4" y="454.4" class="st3" width="57.3" height="51.8"/>
<path class="st3" d="M679.7,454.4h-17.3v39.2c0,6.9,5.6,12.6,12.6,12.6h4.7L679.7,454.4z"/>
<path class="st3" d="M746.4,454.4v51.8h4.7c6.9,0,12.6-5.6,12.6-12.6c0,0,0,0,0,0v-39.2H746.4z"/>
<path class="st3" d="M679.7,387.7v-39.2c-11,9.6-17.3,23.5-17.3,38.1v1.2L679.7,387.7z"/>
<path class="st3" d="M684.4,387.7h57.3v-42.9c-8.4-5.8-18.4-8.9-28.6-8.9l0,0c-10.2,0-20.2,3.1-28.6,8.9V387.7z"/>
<path class="st0" d="M786.2,512.4h-146c-1.9,0-3.5-1.6-3.5-3.5v-9.4c0-1.9,1.6-3.5,3.5-3.5h146c1.9,0,3.5,1.6,3.5,3.5v9.4
	C789.7,510.9,788.1,512.4,786.2,512.4z"/>
<path class="st4" d="M829.5,702.9h-776c-18.2,0-33-14.8-33-33v-503c0-18.2,14.8-33,33-33h776c18.2,0,33,14.8,33,33v503
	C862.5,688.1,847.7,702.8,829.5,702.9z M53.5,135.9c-17.1,0-31,13.9-31,31v503c0,17.1,13.9,31,31,31h776c17.1,0,31-13.9,31-31v-503
	c0-17.1-13.9-31-31-31H53.5z"/>
<path class="st4" d="M33,199.6c-18.3,0-33.1-14.8-33-33.1c0-16.2,11.8-30,27.8-32.6L433.3,0.7c5.3-0.9,10.6-0.9,15.9,0l406.1,133.3
	c18,3,30.2,20,27.2,38c-3,18-19.9,30.2-37.9,27.2c-4.4-0.6-399.5-57-403.1-57.2c-3.6,0.1-399.1,56.6-403.1,57.2
	C36.6,199.5,34.8,199.6,33,199.6z"/>
<path class="st5" d="M615.4,623.4c3.2-4.1,2.4-10-1.7-13.2c-0.4-0.3-0.9-0.6-1.4-0.9l1.9-21.3l-12.7-4.3l-2.2,30.2
	c-2.1,4.8,0.1,10.3,4.8,12.4C608.1,628.1,612.8,626.9,615.4,623.4L615.4,623.4z"/>
<polygon class="st5" points="678.8,789.4 667.4,789.4 661.9,745.3 678.8,745.3 "/>
<path class="st6" d="M659.2,786.1h22l0,0V800l0,0h-35.9l0,0l0,0C645.3,792.3,651.5,786.1,659.2,786.1L659.2,786.1z"/>
<polygon class="st5" points="652.9,760.1 641.8,762.8 625.9,721.3 642.3,717.3 "/>
<path class="st6" d="M633,761.6l21.4-5.3l0,0l3.3,13.5l0,0l-34.9,8.6l0,0l0,0C621,771,625.6,763.5,633,761.6L633,761.6z"/>
<path class="st6" d="M665.4,775.3c-2.2,0-4-1.6-4.2-3.8L648.1,649l-11.4,37.5l16.2,58.5c0.6,2.1-0.5,4.3-2.5,5.1l-12.9,5.2
	c-2.2,0.9-4.6-0.2-5.5-2.4c0-0.1,0-0.1-0.1-0.2l-19.9-57c-2.2-6.2-3.1-12.8-2.8-19.4l2.8-61.5l73,3.1l-1.1,152.2
	c0,2.2-1.7,4-3.9,4.2l-14.2,1.1C665.6,775.3,665.5,775.3,665.4,775.3z"/>
<circle class="st5" cx="653.3" cy="454" r="24.6"/>
<path class="st4" d="M671.4,621.8c-6.5,0-14.5-0.5-22.8-1.1c-11.4-0.7-23.1-1.5-31.9-1c-2.4,0.2-4.8-0.8-6.2-2.7
	c-9-11.6,4.9-56.7,5.5-58.6l11.3-50.5l0.5,0.1l-0.5-0.1c2.5-11.1,10.5-19.3,20.8-21.4c9.7-1.9,19,1.9,25,10.4c0.3,0.4,0.6,0.9,1,1.4
	c19.6,29,8.5,100.9,7.8,105.5c1,1.2,6.6,8.2,5.1,13.1c-0.6,2-2.3,3.3-5,4C678.5,621.7,674.9,621.9,671.4,621.8z"/>
<path class="st6" d="M617.1,621.9c-2.2,0-5.2-0.8-9.3-2.5c-1.7-0.7-7-2.9-0.6-59.1c3.2-27.6,7.7-55,7.7-55.2l0-0.3l0.2-0.1
	c0.1-0.1,11.7-5.3,13.7-12.1c0.1-0.2,0.1-0.5,0.2-0.7c1.1-3.1,4.6-4.8,7.8-3.8c3.4,0.8,5.5,4.1,4.9,7.5c-0.7,4.4-2,8.7-4,12.8
	c-5.4,11.2-9.1,40.9-9.2,41.2c-0.2,2.5-5.1,62.7-6.1,67.2c-0.3,1.6-0.9,3.5-2.7,4.5C619,621.7,618,621.9,617.1,621.9z"/>
<path class="st6" d="M643.9,619.6c-0.4,0-0.9-0.1-1.2-0.4c-7.2-5.5,4.5-72.1,11.4-95c1.4-4.6,2.6-8.5,3.7-11.7l0,0
	c1.9-5.7,3.3-11.6,4-17.5c0.4-3.2,1.2-5.1,2.5-5.6c0.9-0.4,2-0.1,3.2,0.8c6.4-0.3,12.6,2.3,18.4,5.2l5.2,2.6l5.8,103.1
	c-0.2,6.6-13.1,11.2-18.8,11.5c-9.1,0.5-25.4,2-32.6,6.5C645.1,619.4,644.5,619.5,643.9,619.6z"/>
<path class="st6" d="M611.5,600.2c-0.1,0-0.2,0-0.3,0l-11.8-0.7c-2.3-0.1-4.1-2.1-4-4.5c0-0.1,0-0.2,0-0.4l5.3-35.3l10-49.5
	c1-4.8,5.7-7.9,10.5-6.9c0.3,0.1,0.6,0.1,0.9,0.2l0,0c4.2,1.3,6.8,5.5,6.1,9.9l-8,49.6l-4.7,33.9
	C615.4,598.6,613.6,600.2,611.5,600.2z"/>
<path class="st6" d="M657.8,478c14.5,0.3,26.5-11.2,26.8-25.6c0.3-14.5-11.2-26.5-25.6-26.8c-2,0-4.1,0.1-6,0.6
	c-5.4-3.3-11.7-5.5-18-4.9s-12.5,4.3-14.9,10.2s0.2,13.6,6,16c3.8,1.5,8,0.8,12,0.2s8.4-1,11.9,1s5.1,7.6,1.9,10.2
	c-3.4,2.9-4.6,7.6-3.1,11.8C650.3,474.7,654.6,477.9,657.8,478z"/>
<path class="st7" d="M603.4,480.2c-13.3,0-24.1,10.8-24.1,24.1s10.8,24.1,24.1,24.1h0c13.3,0,24.1-10.8,24.1-24.2
	C627.5,491,616.7,480.2,603.4,480.2z"/>
<path id="e2b03078-4341-40c6-aa5e-abce84ce68da" class="st1" d="M601.1,514.4c-0.6,0-1.3-0.2-1.8-0.6l0,0l-6.6-5.1
	c-1.3-1-1.5-2.8-0.6-4.1c1-1.3,2.8-1.5,4.1-0.6c0,0,0,0,0,0l4.3,3.3l10.2-13.3c1-1.3,2.8-1.5,4.1-0.5c0,0,0,0,0,0l0,0l-0.1,0.1
	l0.1-0.1c1.3,1,1.5,2.8,0.5,4.1l-12,15.6C602.9,513.9,602,514.4,601.1,514.4L601.1,514.4z"/>
<path class="st7" d="M654.2,547.1h-84.7c-4.7,0-8.6,3.8-8.6,8.6c0,0,0,0,0,0v84.7c0,4.7,3.8,8.6,8.6,8.6c0,0,0,0,0,0h84.7
	c4.7,0,8.6-3.8,8.6-8.6c0,0,0,0,0,0v-84.7C662.8,551,659,547.1,654.2,547.1C654.2,547.1,654.2,547.1,654.2,547.1z"/>
<path class="st1" d="M635.1,610.5l-40,7.8c-4.9,1-9.7-2.3-10.7-7.2l-3.1-15.8c-1-4.9,2.3-9.7,7.2-10.7l40-7.8
	c4.9-1,9.7,2.3,10.7,7.2l3.1,15.8C643.3,604.8,640.1,609.5,635.1,610.5z"/>
<path class="st7" d="M627.1,591.8l-30.5,5.9c-1.2,0.2-2.3-0.5-2.5-1.7c-0.2-1.2,0.5-2.3,1.7-2.5l30.5-5.9c1.2-0.2,2.3,0.5,2.5,1.7
	C629.1,590.5,628.3,591.6,627.1,591.8C627.1,591.8,627.1,591.8,627.1,591.8z"/>
<path class="st7" d="M621.2,600.6l-15.8,3.1c-1.2,0.2-2.3-0.5-2.5-1.7c-0.2-1.2,0.5-2.3,1.7-2.5l15.8-3.1c1.2-0.2,2.3,0.5,2.5,1.7
	C623.1,599.3,622.4,600.4,621.2,600.6L621.2,600.6z"/>
<path class="st2" d="M662.8,555.7V567H560.9v-11.3c0-4.7,3.8-8.6,8.6-8.6c0,0,0,0,0,0h84.7C659,547.1,662.8,551,662.8,555.7
	C662.8,555.7,662.8,555.7,662.8,555.7z"/>
<path class="st5" d="M651.7,561.6c2.7-4.4,8.5-5.8,12.9-3.1c0.5,0.3,0.9,0.6,1.3,1l19.3-9.3l8.5,10.3l-27.4,12.8
	c-3.7,3.7-9.7,3.6-13.3-0.1C649.9,570.1,649.4,565.3,651.7,561.6L651.7,561.6z"/>
<path class="st6" d="M678.5,571.6c-2,0-3.7-1.3-4.1-3.2l-2.8-11.6c-0.4-1.8,0.3-3.7,1.9-4.6l16.9-10.1l-8.6-31.6
	c-0.6-2.2-0.5-4.6,0.4-6.8h0c2.2-5.5,8.4-8.2,14-6c3,1.2,5.3,3.6,6.3,6.6l9.5,29.1c2.4,7.3-0.2,15.3-6.4,19.8l-24.5,17.7
	C680.2,571.3,679.4,571.6,678.5,571.6z"/>
<path class="st4" d="M706.4,800.9h-102c-0.6,0-1-0.4-1-1s0.4-1,1-1h102c0.6,0,1,0.4,1,1S707,800.9,706.4,800.9z"/>
</svg>
