<?xml version="1.0" encoding="UTF-8"?><svg id="b" xmlns="http://www.w3.org/2000/svg" viewBox="0 0 209.1 209.1"><g id="c"><rect width="209.1" height="209.1" style="fill:#1b1917;"/><path d="m104.55,5.62h0c-7.34,0-13.29,5.95-13.29,13.29v22.67c0,5.86,1.14,11.67,3.34,17.1l.25.62c2.24,5.5,3.39,11.39,3.39,17.33v93.62c0,5.79.59,11.57,1.77,17.25l3.09,14.83c.32,1.53,2.51,1.52,2.82-.02l3-15.25c1.06-5.39,1.59-10.86,1.59-16.35v-93.68c0-6.2,1.25-12.34,3.69-18.05h0c2.4-5.63,3.64-11.69,3.64-17.81v-22.27c0-7.34-5.95-13.29-13.29-13.29Z" style="fill:#bdfd6d; stroke:#bdfd6d; stroke-miterlimit:10;"/><path d="m104.55,47.8h0c-2.94,0-5.32-2.38-5.32-5.32v-23.12c0-2.94,2.38-5.32,5.32-5.32h0c2.94,0,5.32,2.38,5.32,5.32v23.12c0,2.94-2.38,5.32-5.32,5.32Z" style="fill:#1b1917;"/></g></svg>