<svg xmlns="http://www.w3.org/2000/svg" viewBox="0 0 32 32"><rect width="32" height="32" className="fill-secondary"/><path d="M16.31,6.75h0A1.24,1.24,0,0,0,15.06,8v2.12a4.19,4.19,0,0,0,.32,1.6l0,.06a4.25,4.25,0,0,1,.32,1.62v8.76a7.92,7.92,0,0,0,.16,1.61l.29,1.39a.13.13,0,0,0,.26,0l.29-1.43a8.71,8.71,0,0,0,.14-1.53V13.43a4.26,4.26,0,0,1,.35-1.69h0a4.37,4.37,0,0,0,.34-1.67V8A1.24,1.24,0,0,0,16.31,6.75Z" className="fill-primary stroke-primary" stroke-miterlimit="10" stroke-width="0.75"/><path d="M17.39,29.61H6.71a4,4,0,0,1-4-4V6.39a4,4,0,0,1,4-4H11A.31.31,0,0,1,11,3H6.71A3.38,3.38,0,0,0,3.33,6.39V25.61A3.38,3.38,0,0,0,6.71,29H17.39" className="fill-primary stroke-primary" stroke-miterlimit="10" stroke-width="0.75"/><path d="M28.67,19.65V6.39A3.38,3.38,0,0,0,25.29,3H18.67a2.13,2.13,0,0,0-2.13,2.13V6.75a.31.31,0,0,1-.61,0V5.14a2.75,2.75,0,0,1,2.74-2.75h6.62a4,4,0,0,1,4,4V19.87" className="fill-primary stroke-primary" stroke-miterlimit="10" stroke-width="0.75"/><path d="M29.28,19v6.62a4,4,0,0,1-4,4h-7.9V29h7.9a3.38,3.38,0,0,0,3.38-3.38V19Z" className="fill-primary stroke-primary" stroke-miterlimit="10" stroke-width="0.75"/></svg>