<?xml version="1.0" encoding="utf-8"?>
<!-- Generator: Adobe Illustrator 28.2.0, SVG Export Plug-In . SVG Version: 6.00 Build 0)  -->
<svg version="1.1" id="b" xmlns="http://www.w3.org/2000/svg" xmlns:xlink="http://www.w3.org/1999/xlink" x="0px" y="0px"
	 viewBox="0 0 425.2 134.3" style="enable-background:new 0 0 425.2 134.3;" xml:space="preserve">
<style type="text/css">
	.st0{stroke:#000000;stroke-miterlimit:10;}
</style>
<g id="c">
	<path d="M36.7,103.9c-2.3,0-3.3-1-3.3-3.3V89.7c0-2.3,1-3.3,3.3-3.3h25c1.6,0,2.4-1.2,2.4-2.7c0-2.1-0.8-3-2.4-3.2l-13.9-1.9
		c-8.7-1.3-14.4-5-14.4-15.4v-9.8c0-10.6,7.2-16.4,19.2-16.4h26c2.3,0,3.3,1,3.3,3.3v11.1c0,2.3-1,3.3-3.3,3.3H57
		c-1.6,0-2.5,1.1-2.5,2.8s0.9,2.8,2.5,3l13.8,1.9c8.7,1.3,14.5,5,14.5,15.4v9.8c0,10.6-7.2,16.4-19.2,16.4L36.7,103.9L36.7,103.9z"
		/>
	<path d="M111.1,103.9c-2.3,0-3.3-1-3.3-3.3V54.9H94.1c-2.3,0-3.3-1-3.3-3.3V40.3c0-2.3,1-3.3,3.3-3.3h49.1c2.3,0,3.4,1,3.4,3.3
		v11.2c0,2.3-1,3.3-3.4,3.3h-13.7v45.6c0,2.3-1,3.3-3.3,3.3H111.1z"/>
	<path d="M206.9,103.9c-2.3,0-3.4-1-3.4-3.3V54.9h-13.7c-2.3,0-3.4-1-3.4-3.3V40.3c0-2.3,1-3.3,3.4-3.3H239c2.3,0,3.4,1,3.4,3.3
		v11.2c0,2.3-1,3.3-3.4,3.3h-13.7v45.6c0,2.3-1,3.3-3.4,3.3H206.9L206.9,103.9z"/>
	<path d="M275,103.9c-15.6,0-22.9-6-22.9-19V56.1c0-13,7.3-19,22.9-19h18c2.3,0,3.3,1,3.3,3.3v11.2c0,2.3-1,3.3-3.3,3.3h-14
		c-3.9,0-5.7,1.5-5.7,4.7v22.1c0,3.1,1.8,4.5,5.7,4.5h14c2.3,0,3.3,1,3.3,3.3v11.1c0,2.3-1,3.3-3.3,3.3L275,103.9L275,103.9z"/>
	<path d="M310.6,103.9c-2.3,0-3.3-1-3.3-3.3V40.3c0-2.3,1-3.3,3.3-3.3H325c2.3,0,3.4,1,3.4,3.3v20.2h12V40.3c0-2.3,1-3.3,3.3-3.3
		h14.4c2.3,0,3.4,1,3.4,3.3v60.2c0,2.3-1,3.3-3.4,3.3h-14.4c-2.3,0-3.3-1-3.3-3.3V79.9h-12v20.6c0,2.3-1,3.3-3.4,3.3H310.6z"/>
	<path d="M155.4,60.5V40.3c0-2.3,1-3.3,3.3-3.3h14.4c2.3,0,3.4,1,3.4,3.3v60.2c0,2.3-1,3.3-3.4,3.3h-14.4c-2.3,0-3.3-1-3.3-3.3V60.5
		z"/>
	<path d="M371.9,60.5V40.3c0-2.3,1-3.3,3.3-3.3h14.4c2.3,0,3.4,1,3.4,3.3v60.2c0,2.3-1,3.3-3.4,3.3h-14.4c-2.3,0-3.3-1-3.3-3.3V60.5
		z"/>
	<path d="M344.5,9.9c0-5.5-4.4-9.9-9.9-9.9h-16.9c-4.4,0-8.7,0.8-12.8,2.5l-0.5,0.2c-4.1,1.7-8.5,2.5-12.9,2.5h-69.8
		c-4.3,0-8.6,0.4-12.9,1.3l-11.1,2.3c-1.1,0.2-1.1,1.9,0,2.1l11.4,2.2c4,0.8,8.1,1.2,12.2,1.2h69.9c4.6,0,9.2,0.9,13.5,2.8
		c2.1,0.9,4.3,1.6,6.5,2c2.2,0.5,4.5,0.7,6.8,0.7h16.6C340.1,19.8,344.5,15.4,344.5,9.9L344.5,9.9z M337.1,12.7
		c-0.7,0.7-1.7,1.2-2.8,1.2H317c-2.2,0-4-1.8-4-4s1.8-4,4-4h17.2c2.2,0,4,1.8,4,4C338.3,11,337.8,12,337.1,12.7z"/>
	<path class="st0" d="M367.3,133.5l-334.9,0.3c-17.6,0-31.9-14.3-31.9-31.9V39c0-17.6,14.3-31.9,31.9-31.9h149
		c1.3,0,2.5,0.9,2.6,2.2c0.1,1.4-1,2.7-2.4,2.7H32.4c-14.9,0-27,12.1-27,27v62.9c0,14.9,12.1,27,27,27l335-0.3"/>
	<path class="st0" d="M340.1,12h52.7c14.9,0,27,12.1,27,27v63c0,10.1-2.4,17.8-6.9,22.2c-3.2,3.2-7.6,4.8-13,4.7l-32.5-0.3
		c-0.1,0-0.1,0-0.2,0v4.9l32.6,0.3c6.8,0.1,12.3-2,16.5-6.1c5.4-5.4,8.3-14.3,8.3-25.7V39c0-17.6-14.3-31.9-31.9-31.9h-52.7"/>
</g>
</svg>
