<?xml version="1.0" encoding="UTF-8"?><svg id="a" xmlns="http://www.w3.org/2000/svg" viewBox="0 0 220 184.6"><path d="m209.9,26.3l-17.3-17.3-.1-.1h0c-5.7-5.7-13.4-8.9-21.4-8.9H30.3C13.6,0,0,13.6,0,30.3v105.4c0,7.9,3.1,15.6,8.7,21.2h0l.1.1.2.2,18.4,18.4.1.1.1.1h0c5.7,5.6,13.3,8.7,21.2,8.7h100.4c11.9,0,21.5-9.6,21.5-21.5v-39.4c0-.8.6-1.4,1.4-1.4h0l17.3.2h.3c16.7,0,30.3-13.6,30.3-30.3v-43.2c0-8.7-3.7-16.9-10.1-22.6Z" style="fill:#1c1917;"/><path d="m30,78.2c-1.6,0-2.3-.7-2.3-2.3v-7.5c0-1.6.7-2.3,2.3-2.3h17.1c.9,0,1.7-.7,1.7-1.7v-.2c0-1.5-.6-2-1.7-2.2l-9.6-1.3c-6-.9-9.9-3.5-9.9-10.6v-6.7c0-7.3,4.9-11.2,13.2-11.2h17.9c1.6,0,2.3.7,2.3,2.3v7.6c0,1.6-.7,2.3-2.3,2.3h-14.8c-.9,0-1.7.7-1.7,1.7v.3c-.1,1,.7,2,1.7,2h0l9.5,1.3c6,.9,10,3.5,10,10.6v6.7c0,7.3-5,11.2-13.2,11.2h-20.2Z" style="fill:#fff;"/><path d="m81.1,78.2c-1.6,0-2.3-.7-2.3-2.3v-31.3h-9.4c-1.6,0-2.3-.7-2.3-2.3v-7.7c0-1.6.7-2.3,2.3-2.3h33.7c1.6,0,2.3.7,2.3,2.3v7.7c0,1.6-.7,2.3-2.3,2.3h-9.4v31.4c0,1.6-.7,2.3-2.3,2.3l-10.3-.1Z" style="fill:#fff;"/><path d="m151.1,78.2c-1.6,0-2.3-.7-2.3-2.3v-31.3h-9.4c-1.6,0-2.3-.7-2.3-2.3v-7.7c0-1.6.7-2.3,2.3-2.3h33.7c1.6,0,2.3.7,2.3,2.3v7.7c0,1.6-.7,2.3-2.3,2.3h-9.4v31.4c0,1.6-.7,2.3-2.3,2.3l-10.3-.1Z" style="fill:#fff;"/><path d="m43.4,133.8c-10.7,0-15.7-4.2-15.7-13v-19.9c0-8.9,5-13.1,15.7-13.1h12.4c1.6,0,2.3.7,2.3,2.3v7.7c0,1.6-.7,2.3-2.3,2.3h-9.6c-2.7,0-3.9,1-3.9,3.2v15.2c0,2.1,1.2,3.1,3.9,3.1h9.6c1.6,0,2.3.7,2.3,2.3v7.6c0,1.6-.7,2.3-2.3,2.3h-12.4Z" style="fill:#fff;"/><path d="m67.8,133.8c-1.6,0-2.3-.7-2.3-2.3v-41.5c0-1.6.7-2.3,2.3-2.3h9.9c1.6,0,2.3.7,2.3,2.3v13.9h8.3v-13.9c0-1.6.7-2.3,2.3-2.3h9.9c1.6,0,2.3.7,2.3,2.3v41.4c0,1.6-.7,2.3-2.3,2.3h-9.9c-1.6,0-2.3-.7-2.3-2.3v-14.2h-8.3v14.2c0,1.6-.7,2.3-2.3,2.3h-9.9v.1Z" style="fill:#fff;"/><path d="m121.4,32.2h0c-3.8,0-6.8,3-6.8,6.8h0v11.6c0,3,.6,6,1.7,8.8l.1.3c1.2,2.8,1.7,5.8,1.7,8.9v48c0,3,.3,5.9.9,8.8l1.6,7.6c.1.4.5.7.9.6.3-.1.5-.3.6-.6l1.5-7.8c.5-2.8.8-5.6.8-8.4v-48c0-3.2.6-6.3,1.9-9.3h0c1.2-2.9,1.9-6,1.9-9.1v-11.3c.1-3.8-3-6.8-6.8-6.9Z" style="fill:#bdfd6d;"/><path d="m121.4,53.9h0c-1.5,0-2.7-1.2-2.7-2.7h0v-11.9c0-1.5,1.2-2.7,2.7-2.7h0c1.5,0,2.7,1.2,2.7,2.7v11.9c.1,1.5-1.1,2.7-2.7,2.7Z" style="fill:#1c1917;"/><path d="m130.7,157.6H30.3c-12.1,0-21.9-9.8-21.9-21.9V30.3c0-12.1,9.8-21.9,21.9-21.9h75.1c.9,0,1.7.8,1.7,1.7s-.8,1.7-1.7,1.7H30.3c-10.2,0-18.5,8.3-18.5,18.5v105.4c0,10.2,8.3,18.5,18.5,18.5h100.4c5.4,0,9.7-4.4,9.8-9.8v-39.4c0-7.2,5.9-13.1,13.1-13.1h.1l22.3.2c3.3.2,6.6-1,9-3.2,3.1-3,4.7-8.3,4.7-15.3V30.3c0-10.3-8.3-18.6-18.6-18.5h-36.3c-6.4,0-11.7,5.2-11.7,11.7v8.8c.1.9-.6,1.7-1.5,1.8s-1.7-.6-1.8-1.5v-9.1c0-8.3,6.7-15,15-15h36.3c12.1,0,21.9,9.8,21.9,21.9v43.3c0,7.9-2,14-5.7,17.7-3,2.9-7.1,4.4-11.4,4.2l-22.3-.2h-.1c-5.4,0-9.7,4.3-9.8,9.7h0v39.4c.1,7.2-5.8,13.1-13,13.1Z" style="fill:#bdfd6d;"/></svg>