<?xml version="1.0" encoding="UTF-8"?><svg id="a" xmlns="http://www.w3.org/2000/svg" viewBox="0 0 425.2 134.3"><g id="b"><path d="M36.7,103.9c-2.3,0-3.3-1-3.3-3.3v-10.9c0-2.3,1-3.3,3.3-3.3h25c1.6,0,2.4-1.2,2.4-2.7,0-2.1-.8-3-2.4-3.2l-13.9-1.9c-8.7-1.3-14.4-5-14.4-15.4v-9.8c0-10.6,7.2-16.4,19.2-16.4h26c2.3,0,3.3,1,3.3,3.3v11.1c0,2.3-1,3.3-3.3,3.3h-21.6c-1.6,0-2.5,1.1-2.5,2.8s.9,2.8,2.5,3l13.8,1.9c8.7,1.3,14.5,5,14.5,15.4v9.8c0,10.6-7.2,16.4-19.2,16.4l-29.4-.1h0Z" style="fill:#000; stroke-width:0px;"/><path d="M111.1,103.9c-2.3,0-3.3-1-3.3-3.3v-45.7h-13.7c-2.3,0-3.3-1-3.3-3.3v-11.3c0-2.3,1-3.3,3.3-3.3h49.1c2.3,0,3.4,1,3.4,3.3v11.2c0,2.3-1,3.3-3.4,3.3h-13.7v45.6c0,2.3-1,3.3-3.3,3.3h-15.1v.2Z" style="fill:#000; stroke-width:0px;"/><path d="M206.9,103.9c-2.3,0-3.4-1-3.4-3.3v-45.7h-13.7c-2.3,0-3.4-1-3.4-3.3v-11.3c0-2.3,1-3.3,3.4-3.3h49.2c2.3,0,3.4,1,3.4,3.3v11.2c0,2.3-1,3.3-3.4,3.3h-13.7v45.6c0,2.3-1,3.3-3.4,3.3h-15v.2Z" style="fill:#000; stroke-width:0px;"/><path d="M275,103.9c-15.6,0-22.9-6-22.9-19v-28.8c0-13,7.3-19,22.9-19h18c2.3,0,3.3,1,3.3,3.3v11.2c0,2.3-1,3.3-3.3,3.3h-14c-3.9,0-5.7,1.5-5.7,4.7v22.1c0,3.1,1.8,4.5,5.7,4.5h14c2.3,0,3.3,1,3.3,3.3v11.1c0,2.3-1,3.3-3.3,3.3h-18Z" style="fill:#000; stroke-width:0px;"/><path d="M310.6,103.9c-2.3,0-3.3-1-3.3-3.3v-60.3c0-2.3,1-3.3,3.3-3.3h14.4c2.3,0,3.4,1,3.4,3.3v20.2h12v-20.2c0-2.3,1-3.3,3.3-3.3h14.4c2.3,0,3.4,1,3.4,3.3v60.2c0,2.3-1,3.3-3.4,3.3h-14.4c-2.3,0-3.3-1-3.3-3.3v-20.6h-12v20.6c0,2.3-1,3.3-3.4,3.3h-14.4v.1Z" style="fill:#000; stroke-width:0px;"/><path d="M155.4,60.5v-20.2c0-2.3,1-3.3,3.3-3.3h14.4c2.3,0,3.4,1,3.4,3.3v60.2c0,2.3-1,3.3-3.4,3.3h-14.4c-2.3,0-3.3-1-3.3-3.3v-40Z" style="fill:#000; stroke-width:0px;"/><path d="M371.9,60.5v-20.2c0-2.3,1-3.3,3.3-3.3h14.4c2.3,0,3.4,1,3.4,3.3v60.2c0,2.3-1,3.3-3.4,3.3h-14.4c-2.3,0-3.3-1-3.3-3.3v-40Z" style="fill:#000; stroke-width:0px;"/><path d="M344.5,9.9c0-5.5-4.4-9.9-9.9-9.9h-16.9c-4.4,0-8.7.8-12.8,2.5l-.5.2c-4.1,1.7-8.5,2.5-12.9,2.5h-69.8c-4.3,0-8.6.4-12.9,1.3l-11.1,2.3c-1.1.2-1.1,1.9,0,2.1l11.4,2.2c4,.8,8.1,1.2,12.2,1.2h69.9c4.6,0,9.2.9,13.5,2.8,2.1.9,4.3,1.6,6.5,2,2.2.5,4.5.7,6.8.7h16.6c5.5,0,9.9-4.4,9.9-9.9h0ZM337.1,12.7c-.7.7-1.7,1.2-2.8,1.2h-17.3c-2.2,0-4-1.8-4-4s1.8-4,4-4h17.2c2.2,0,4,1.8,4,4,.1,1.1-.4,2.1-1.1,2.8Z" style="fill:#000; stroke-width:0px;"/><path d="M367.3,133.5l-334.9.3c-17.6,0-31.9-14.3-31.9-31.9v-62.9C.5,21.4,14.8,7.1,32.4,7.1h149c1.3,0,2.5.9,2.6,2.2.1,1.4-1,2.7-2.4,2.7H32.4c-14.9,0-27,12.1-27,27v62.9c0,14.9,12.1,27,27,27l335-.3" style="fill:#000; stroke-width:0px;"/><path d="M340.1,12h52.7c14.9,0,27,12.1,27,27v63c0,10.1-2.4,17.8-6.9,22.2-3.2,3.2-7.6,4.8-13,4.7l-32.5-.3h-.2v4.9l32.6.3c6.8.1,12.3-2,16.5-6.1,5.4-5.4,8.3-14.3,8.3-25.7v-63c0-17.6-14.3-31.9-31.9-31.9h-52.7" style="fill:#000; stroke-width:0px;"/></g></svg>