<?xml version="1.0" encoding="utf-8"?>
<!-- Generator: Adobe Illustrator 26.3.1, SVG Export Plug-In . SVG Version: 6.00 Build 0)  -->
<svg version="1.1" id="Layer_1" xmlns="http://www.w3.org/2000/svg" xmlns:xlink="http://www.w3.org/1999/xlink" x="0px" y="0px"
	 viewBox="0 0 468 730" style="enable-background:new 0 0 468 730;" xml:space="preserve">
<style type="text/css">
	.st0{fill:#FFFFFF;}
</style>
<g id="Layer_2_00000163766102665233952940000014414122777341072022_">
	<path d="M0.5,405.3l-0.4,83.1c0,0-1.9,18,14,18s13.6-21.4,13.6-29.3c0-10.4,1.9-21.3,12.7-21.3c11.3,0,11.3,14.4,11.3,24.8
		c0,5,1.7,14.6,13.4,14.6c11.1,0,14.2-8.8,14.2-14.2s5.8-11.1,15-10.6c8.3,0.4,16.1-3.8,16.7-12.7c0.6-8.5,4.2-16.5,15-16.5
		c10,0,12.9,7.9,12.9,18.4v29.2c0,4.6,2.5,17.5,15.4,17.5s17.9-10,17.9-16.3v-23.4c0-5.4,5.4-12.5,13.4-12.5s13.6,6.7,13.6,11.3
		s0.6,20.9,0.6,25c0,8.6,6.3,14.2,15.4,14.2s14.6-7.1,14.6-13.4c0-3.3,3.3-16.3,13.8-16.3s19.2-4.6,20-14.8
		c0.7-8.7,4.8-17.5,14.8-17.5s14.8,9.6,14.8,19.6v22.4c0,5,3.8,13.6,13.6,13.6s14.7-9.1,15.6-13.6c1.1-5.4,4.2-15.4,13.8-15.4
		s12.5,6.7,12.5,13.8v20.5c0,2.5,1.2,15,15,15s16.1-12.9,16.1-19.2s0.2-27.5,0.2-33.4s4.6-14.6,14-14.6c8.1,0,13.6,7.1,13.6,14.2
		s0.6,19.2,0.6,23s-0.4,18,17.7,18c12.1,0,16.1-9.2,16.1-16.1s-0.6-23.6,8.6-23.6S468,457.1,468,447v-51.8"/>
	<path class="st0" d="M21.4,497.9l1-2.3c0.4-1.1-0.1-2.4-1.3-2.8c-1.1-0.4-2.3,0.1-2.8,1.1l-1,2.3c-0.4,1.1,0.1,2.4,1.3,2.8
		C19.7,499.4,20.9,498.9,21.4,497.9"/>
	<path class="st0" d="M73.5,487.8l1-2.3c0.4-1.1-0.1-2.4-1.3-2.8c-1.1-0.4-2.3,0.1-2.8,1.1l-1,2.3c-0.5,1.1,0,2.4,1.1,2.9
		s2.4,0,2.9-1.1C73.4,487.9,73.5,487.9,73.5,487.8"/>
	<path class="st0" d="M104.7,461.8l1-2.3c0.5-1.1,0-2.4-1.1-2.9s-2.4,0-2.9,1.1c0,0,0,0.1-0.1,0.1l-1,2.3c-0.5,1.1,0,2.4,1.1,2.9
		s2.4,0,2.9-1.1C104.7,461.9,104.7,461.9,104.7,461.8"/>
	<path class="st0" d="M166.4,494.8l1-2.3c0.5-1.1,0-2.4-1.1-2.9s-2.4,0-2.9,1.1c0,0,0,0.1-0.1,0.1l-1,2.3c-0.5,1.1,0,2.4,1.1,2.9
		s2.4,0,2.9-1.1C166.4,494.9,166.4,494.8,166.4,494.8"/>
	<path class="st0" d="M224,495.5l1-2.3c0.4-1.1-0.1-2.4-1.3-2.8c-1.1-0.4-2.3,0.1-2.8,1.1l-1,2.3c-0.5,1.1,0,2.4,1.1,2.9
		s2.4,0,2.9-1.1C224,495.6,224,495.5,224,495.5"/>
	<path class="st0" d="M256.6,464.2l1-2.3c0.4-1.1-0.1-2.4-1.3-2.8c-1.1-0.4-2.3,0.1-2.8,1.1l-1,2.3c-0.5,1.1,0,2.4,1.1,2.9
		s2.4,0,2.9-1.1C256.6,464.3,256.6,464.3,256.6,464.2"/>
	<path class="st0" d="M316.7,487.8l1-2.3c0.5-1.1,0-2.4-1.1-2.9s-2.4,0-2.9,1.1c0,0,0,0.1-0.1,0.1l-1,2.3c-0.5,1.1,0,2.4,1.1,2.9
		s2.4,0,2.9-1.1C316.6,487.9,316.6,487.9,316.7,487.8"/>
	<path class="st0" d="M373.5,508l1-2.3c0.4-1.1-0.1-2.4-1.3-2.8c-1.1-0.4-2.3,0.1-2.8,1.1l-1,2.3c-0.5,1.1,0,2.4,1.1,2.9
		s2.4,0,2.9-1.1C373.4,508.1,373.5,508.1,373.5,508"/>
	<path class="st0" d="M436.6,495.6l1-2.3c0.5-1.1,0-2.4-1.1-2.9s-2.4,0-2.9,1.1c0,0,0,0.1-0.1,0.1l-1,2.3c-0.4,1.1,0.1,2.4,1.3,2.8
		C434.9,497.2,436.1,496.7,436.6,495.6"/>
	<path class="st0" d="M459.8,455.8l1-2.3c0.5-1.1,0-2.4-1.1-2.9s-2.4,0-2.9,1.1c0,0,0,0.1-0.1,0.1l-1,2.3c-0.4,1.1,0.1,2.4,1.3,2.8
		C458.1,457.4,459.3,456.9,459.8,455.8"/>
	<path d="M61.8,275.5c0,9.3-7.6,16.9-16.9,16.9H17.3C8,292.5,0.4,300,0.4,309.3v114.9c0.1,9.3,7.6,16.8,16.9,16.9h433.6
		c9.3,0,16.9-7.6,16.9-16.9v-115c0-9.3-7.6-16.9-16.9-16.9h-31.3c-9.3,0-16.9-7.6-16.9-16.9v-47c0-9.3-7.6-16.9-16.9-16.9h-307
		c-9.4,0-16.9,7.6-17,17V275L61.8,275.5z"/>
	<path class="st0" d="M377,332.8c-0.6-0.6-1.3-0.9-2.1-0.9H364c-1.6,0-2.9,1.3-2.9,2.9l0.3,39l-35.9-40.6c-1.1-1.2-2.9-1.3-4.2-0.2
		c-0.6,0.6-1,1.3-1,2.2l0.2,75.4c0,1.6,1.3,2.9,2.9,2.9h10.8c1.6,0,2.9-1.3,2.9-2.9l0.2-37.9l34.9,39.2c1.1,1.2,2.9,1.3,4.1,0.3
		c0.6-0.5,1-1.3,1-2.2l0.3-75.1C377.8,334.1,377.5,333.3,377,332.8"/>
	<path class="st0" d="M310.9,331.7H300c-1.6,0-2.9,1.3-2.9,2.9l0,0v76c0,1.6,1.3,2.9,2.9,2.9l0,0h10.9c1.6,0,2.9-1.3,2.9-2.9v-76
		C313.8,333,312.5,331.7,310.9,331.7"/>
	<path class="st0" d="M288.7,380.6l-24.4-18.5l22.9-16c1.3-0.9,1.6-2.7,0.7-4l0,0l-6.2-8.9c-0.9-1.3-2.7-1.6-4-0.7l0,0l-38.2,26.8
		c-1.3,0.9-1.6,2.7-0.7,4c0.2,0.2,0.4,0.5,0.6,0.6l25.5,19.3L244.3,400c-1.2,1-1.4,2.8-0.4,4l6.8,8.4c0.5,0.6,1.2,0.9,1.9,1h0.3
		c0.7,0,1.3-0.2,1.8-0.6l34.1-27.7c1.2-1,1.4-2.8,0.4-4C289.1,380.8,288.9,380.7,288.7,380.6"/>
	<path class="st0" d="M245.2,382.8c0-0.9-0.4-1.7-1.1-2.2l-24.4-18.5l22.9-16c1.3-0.9,1.6-2.7,0.7-4l0,0l-6.2-8.9
		c-0.9-1.3-2.7-1.6-4-0.7l0,0l-38.2,26.8c-1.3,0.9-1.6,2.7-0.7,4c0.2,0.2,0.4,0.5,0.6,0.6l25.4,19.3L199.6,400c-1.2,1-1.4,2.8-0.4,4
		l6.8,8.4c0.5,0.6,1.2,0.9,1.9,1h0.3c0.7,0,1.3-0.2,1.8-0.6l34.1-27.7C244.8,384.5,245.2,383.6,245.2,382.8"/>
	<path class="st0" d="M433.9,369.2h-11.3c-1.3,0-2.4,1.1-2.4,2.4l0,0v11.2l-15.6-12l30.3-26.7c1-0.9,1.1-2.4,0.2-3.4l-7.5-8.4
		c-0.9-1-2.4-1.1-3.4-0.2l-42.3,37.4c-1,0.9-1.1,2.4-0.2,3.4c0.1,0.1,0.2,0.2,0.3,0.3l50.4,40.4c1,0.8,2.6,0.7,3.4-0.4
		c0.3-0.4,0.5-1,0.5-1.5v-40.1C436.3,370.3,435.2,369.2,433.9,369.2L433.9,369.2"/>
	<path class="st0" d="M170,380.4h17.2c1.3,0,2.3-1,2.3-2.3v-11.9c0-1.3-1-2.3-2.3-2.3h-16.8l23.3-19.2c1-0.8,1.1-2.2,0.3-3.2
		l-7.3-9.3c-0.8-1-2.2-1.2-3.2-0.4l0,0L137,370.3c-1,0.8-1.1,2.3-0.3,3.2c0.1,0.1,0.2,0.2,0.3,0.3l45.9,39.1
		c0.4,0.4,0.9,0.5,1.5,0.5h0.2c0.6-0.1,1.2-0.4,1.6-0.8l7.4-9.1c0.8-1,0.7-2.4-0.3-3.2L170,380.4z"/>
	<path class="st0" d="M117.7,380.7l18.9-13.1c1.1-0.7,1.4-2.2,0.7-3.3c-0.2-0.3-0.4-0.5-0.7-0.7l-46.1-32c-1.1-0.8-2.6-0.5-3.4,0.6
		c-0.3,0.4-0.4,0.9-0.4,1.4V411c0,1.3,1.1,2.4,2.4,2.4l0,0h11.2c1.3,0,2.4-1.1,2.4-2.4l0,0v-20.6l1.5-1.1l19,23.1
		c0.8,1,2.3,1.2,3.3,0.4l8.9-6.9c1.1-0.8,1.2-2.3,0.4-3.4c0,0,0,0-0.1-0.1L117.7,380.7z M110.8,365.4l-8,5.7v-11.5L110.8,365.4z"/>
	<path class="st0" d="M83.2,371.6L43,336.1c-0.1-0.1-0.2-0.2-0.4-0.3l-7.4-6.5c-1-0.8-2.4-0.6-3.2,0.4c-0.3,0.4-0.5,0.9-0.5,1.4
		v80.7c0,1.3,1,2.3,2.3,2.3c0.5,0,1-0.2,1.4-0.5l47.9-38.4c1-0.8,1.1-2.2,0.3-3.2C83.4,371.8,83.3,371.7,83.2,371.6 M46.8,384.4
		v-24.5L61.6,373L46.8,384.4z"/>
	<path class="st0" d="M177.4,285.2l18.5-12.8c1.1-0.7,1.3-2.2,0.6-3.3c-0.2-0.2-0.4-0.4-0.6-0.6l-45-31.2c-1.1-0.7-2.5-0.5-3.3,0.6
		c-0.3,0.4-0.4,0.9-0.4,1.4v75.6c0,1.3,1.1,2.4,2.3,2.4l0,0h11c1.3,0,2.4-1.1,2.4-2.3l0,0v-20.1l1.5-1l18.5,22.6
		c0.8,1,2.2,1.1,3.2,0.4l8.7-6.7c1-0.8,1.2-2.3,0.4-3.3c0,0,0-0.1-0.1-0.1L177.4,285.2z M170.6,270.2l-7.8,5.6v-11.2L170.6,270.2z"
		/>
	<path class="st0" d="M309.6,246.4l-7.2-9.1c-0.8-1-2.2-1.1-3.2-0.4l0,0l-45.7,37.8c-1,0.8-1.1,2.2-0.3,3.2c0.1,0.1,0.2,0.2,0.3,0.3
		l45.2,38.4c0.4,0.3,0.9,0.5,1.5,0.5h0.2c0.6-0.1,1.2-0.4,1.5-0.8l7.3-9c0.8-1,0.6-2.3-0.3-3.1l-23-19.6h16.9c1.2,0,2.3-1,2.3-2.3
		l0,0v-11.7c0-1.2-1-2.3-2.3-2.3l0,0h-16.4l22.9-18.9C310.3,248.7,310.4,247.4,309.6,246.4"/>
	<path class="st0" d="M136.7,273.7h-10.9c-1.3,0-2.3,1-2.3,2.3v10.9l-15.1-11.6l29.3-25.9c1-0.9,1.1-2.3,0.2-3.3l-7.2-8.1
		c-0.9-1-2.3-1.1-3.3-0.2l-41,36.2c-1,0.9-1.1,2.3-0.2,3.3c0.1,0.1,0.2,0.2,0.3,0.3l48.8,39.2c1,0.8,2.5,0.6,3.3-0.4
		c0.3-0.4,0.5-0.9,0.5-1.5V276C139,274.7,138,273.7,136.7,273.7"/>
	<path class="st0" d="M230.1,284.7H247c1.2,0,2.3-1,2.3-2.3v-11.7c0-1.2-1-2.3-2.3-2.3h-16.4l22.9-18.9c0.9-0.8,1.1-2.2,0.3-3.1
		l-7.2-9.1c-0.8-1-2.2-1.1-3.2-0.4l0,0l-45.7,37.8c-1,0.8-1.1,2.2-0.3,3.2c0.1,0.1,0.2,0.2,0.3,0.3l45.1,38.4
		c0.4,0.3,0.9,0.5,1.5,0.5h0.2c0.6-0.1,1.2-0.4,1.6-0.8l7.3-9c0.8-1,0.6-2.3-0.3-3.1L230.1,284.7z"/>
	<path class="st0" d="M373.4,250.8c0.1-0.6-0.1-1.3-0.5-1.8l-7.7-9.7c-0.8-1-2.3-1.2-3.4-0.4L333,261.7V239c0-1.3-1.1-2.4-2.4-2.4
		l0,0h-12.4c-1.3,0-2.4,1.1-2.4,2.4l0,0v75.5c0,1.3,1.1,2.4,2.4,2.4l0,0h12.4c1.3,0,2.4-1.1,2.4-2.4l0,0v-23.2l28.2,25.2
		c1,0.9,2.5,0.8,3.4-0.2c0,0,0-0.1,0.1-0.1l7.9-9.6c0.8-1,0.7-2.4-0.2-3.3L342.5,276l30-23.7C373,252,373.4,251.4,373.4,250.8"/>
	<path class="st0" d="M459.2,302l-1.7-1.8c-0.8-0.9-2.2-0.9-3.1-0.1s-0.9,2.2-0.1,3.1l1.7,1.8c0.8,0.9,2.2,0.9,3.1,0.1
		S460,302.9,459.2,302L459.2,302"/>
	<path class="st0" d="M393.7,221.8L392,220c-0.8-0.9-2.2-0.9-3.1-0.1s-0.9,2.2-0.1,3.1l1.7,1.8c0.8,0.9,2.2,0.9,3.1,0.1
		S394.5,222.7,393.7,221.8L393.7,221.8"/>
	<path class="st0" d="M12,305.9l1.3-2.1c0.6-1.1,0.2-2.4-0.9-3c-1-0.5-2.3-0.2-2.9,0.8l-1.3,2.1c-0.6,1.1-0.2,2.4,0.9,3
		C10.1,307.2,11.4,306.9,12,305.9"/>
	<path class="st0" d="M72.3,225.3l1.3-2.1c0.6-1.1,0.3-2.4-0.8-3c-1.1-0.6-2.4-0.3-3,0.8l-1.3,2.1c-0.6,1.1-0.2,2.4,0.9,3
		C70.4,226.6,71.7,226.3,72.3,225.3"/>
</g>
</svg>
