<?xml version="1.0" encoding="utf-8"?>
<!-- Generator: Adobe Illustrator 26.3.1, SVG Export Plug-In . SVG Version: 6.00 Build 0)  -->
<svg version="1.1" id="Layer_1" xmlns="http://www.w3.org/2000/svg" xmlns:xlink="http://www.w3.org/1999/xlink" x="0px" y="0px"
	 viewBox="0 0 468 468" style="enable-background:new 0 0 468 468;" xml:space="preserve">
<style type="text/css">
	.st0{fill:#FFFFFF;}
</style>
<g id="Layer_2_00000163766102665233952940000014414122777341072022_">
	<path d="M0.5,274.3l-0.4,83.1c0,0-1.9,18,14,18s13.6-21.4,13.6-29.3c0-10.4,1.9-21.3,12.7-21.3c11.3,0,11.3,14.4,11.3,24.8
		c0,5,1.7,14.6,13.4,14.6c11.1,0,14.2-8.8,14.2-14.2s5.8-11.1,15-10.6c8.3,0.4,16.1-3.8,16.7-12.7c0.6-8.5,4.2-16.5,15-16.5
		c10,0,12.9,7.9,12.9,18.4v29.2c0,4.6,2.5,17.5,15.4,17.5s17.9-10,17.9-16.3v-23.4c0-5.4,5.4-12.5,13.4-12.5s13.6,6.7,13.6,11.3
		s0.6,20.9,0.6,25c0,8.6,6.3,14.2,15.4,14.2s14.6-7.1,14.6-13.4c0-3.3,3.3-16.3,13.8-16.3s19.2-4.6,20-14.8
		c0.7-8.7,4.8-17.5,14.8-17.5s14.8,9.6,14.8,19.6v22.4c0,5,3.8,13.6,13.6,13.6s14.7-9.1,15.6-13.6c1.1-5.4,4.2-15.4,13.8-15.4
		s12.5,6.7,12.5,13.8v20.5c0,2.5,1.2,15,15,15s16.1-12.9,16.1-19.2s0.2-27.5,0.2-33.4s4.6-14.6,14-14.6c8.1,0,13.6,7.1,13.6,14.2
		s0.6,19.2,0.6,23s-0.4,18,17.7,18c12.1,0,16.1-9.2,16.1-16.1s-0.6-23.6,8.6-23.6S468,326.1,468,316v-51.8"/>
	<path class="st0" d="M21.4,366.9l1-2.3c0.4-1.1-0.1-2.4-1.3-2.8c-1.1-0.4-2.3,0.1-2.8,1.1l-1,2.3c-0.4,1.1,0.1,2.4,1.3,2.8
		C19.7,368.4,20.9,367.9,21.4,366.9"/>
	<path class="st0" d="M73.5,356.8l1-2.3c0.4-1.1-0.1-2.4-1.3-2.8c-1.1-0.4-2.3,0.1-2.8,1.1l-1,2.3c-0.5,1.1,0,2.4,1.1,2.9
		c1.1,0.5,2.4,0,2.9-1.1C73.4,356.9,73.5,356.9,73.5,356.8"/>
	<path class="st0" d="M104.7,330.8l1-2.3c0.5-1.1,0-2.4-1.1-2.9c-1.1-0.5-2.4,0-2.9,1.1c0,0,0,0.1-0.1,0.1l-1,2.3
		c-0.5,1.1,0,2.4,1.1,2.9c1.1,0.5,2.4,0,2.9-1.1C104.7,330.9,104.7,330.9,104.7,330.8"/>
	<path class="st0" d="M166.4,363.8l1-2.3c0.5-1.1,0-2.4-1.1-2.9c-1.1-0.5-2.4,0-2.9,1.1c0,0,0,0.1-0.1,0.1l-1,2.3
		c-0.5,1.1,0,2.4,1.1,2.9c1.1,0.5,2.4,0,2.9-1.1C166.4,363.9,166.4,363.8,166.4,363.8"/>
	<path class="st0" d="M224,364.5l1-2.3c0.4-1.1-0.1-2.4-1.3-2.8c-1.1-0.4-2.3,0.1-2.8,1.1l-1,2.3c-0.5,1.1,0,2.4,1.1,2.9
		c1.1,0.5,2.4,0,2.9-1.1C224,364.6,224,364.5,224,364.5"/>
	<path class="st0" d="M256.6,333.2l1-2.3c0.4-1.1-0.1-2.4-1.3-2.8c-1.1-0.4-2.3,0.1-2.8,1.1l-1,2.3c-0.5,1.1,0,2.4,1.1,2.9
		c1.1,0.5,2.4,0,2.9-1.1C256.6,333.3,256.6,333.3,256.6,333.2"/>
	<path class="st0" d="M316.7,356.8l1-2.3c0.5-1.1,0-2.4-1.1-2.9c-1.1-0.5-2.4,0-2.9,1.1c0,0,0,0.1-0.1,0.1l-1,2.3
		c-0.5,1.1,0,2.4,1.1,2.9c1.1,0.5,2.4,0,2.9-1.1C316.6,356.9,316.6,356.9,316.7,356.8"/>
	<path class="st0" d="M373.5,377l1-2.3c0.4-1.1-0.1-2.4-1.3-2.8c-1.1-0.4-2.3,0.1-2.8,1.1l-1,2.3c-0.5,1.1,0,2.4,1.1,2.9
		c1.1,0.5,2.4,0,2.9-1.1C373.4,377.1,373.5,377.1,373.5,377"/>
	<path class="st0" d="M436.6,364.6l1-2.3c0.5-1.1,0-2.4-1.1-2.9c-1.1-0.5-2.4,0-2.9,1.1c0,0,0,0.1-0.1,0.1l-1,2.3
		c-0.4,1.1,0.1,2.4,1.3,2.8C434.9,366.2,436.1,365.7,436.6,364.6"/>
	<path class="st0" d="M459.8,324.8l1-2.3c0.5-1.1,0-2.4-1.1-2.9c-1.1-0.5-2.4,0-2.9,1.1c0,0,0,0.1-0.1,0.1l-1,2.3
		c-0.4,1.1,0.1,2.4,1.3,2.8C458.1,326.4,459.3,325.9,459.8,324.8"/>
	<path d="M61.8,144.5c0,9.3-7.6,16.9-16.9,16.9H17.3c-9.3,0.1-16.9,7.6-16.9,16.9v114.9c0.1,9.3,7.6,16.8,16.9,16.9h433.6
		c9.3,0,16.9-7.6,16.9-16.9V178.2c0-9.3-7.6-16.9-16.9-16.9h-31.3c-9.3,0-16.9-7.6-16.9-16.9v-47c0-9.3-7.6-16.9-16.9-16.9h-307
		c-9.4,0-16.9,7.6-17,17V144L61.8,144.5z"/>
	<path class="st0" d="M377,201.8c-0.6-0.6-1.3-0.9-2.1-0.9H364c-1.6,0-2.9,1.3-2.9,2.9l0.3,39l-35.9-40.6c-1.1-1.2-2.9-1.3-4.2-0.2
		c-0.6,0.6-1,1.3-1,2.2l0.2,75.4c0,1.6,1.3,2.9,2.9,2.9h10.8c1.6,0,2.9-1.3,2.9-2.9l0.2-37.9l34.9,39.2c1.1,1.2,2.9,1.3,4.1,0.3
		c0.6-0.5,1-1.3,1-2.2l0.3-75.1C377.8,203.1,377.5,202.3,377,201.8"/>
	<path class="st0" d="M310.9,200.7h-10.9c-1.6,0-2.9,1.3-2.9,2.9c0,0,0,0,0,0v76c0,1.6,1.3,2.9,2.9,2.9c0,0,0,0,0,0h10.9
		c1.6,0,2.9-1.3,2.9-2.9v-76C313.8,202,312.5,200.7,310.9,200.7"/>
	<path class="st0" d="M288.7,249.6l-24.4-18.5l22.9-16c1.3-0.9,1.6-2.7,0.7-4c0,0,0,0,0,0l-6.2-8.9c-0.9-1.3-2.7-1.6-4-0.7
		c0,0,0,0,0,0l-38.2,26.8c-1.3,0.9-1.6,2.7-0.7,4c0.2,0.2,0.4,0.5,0.6,0.6l25.5,19.3L244.3,269c-1.2,1-1.4,2.8-0.4,4l6.8,8.4
		c0.5,0.6,1.2,0.9,1.9,1h0.3c0.7,0,1.3-0.2,1.8-0.6l34.1-27.7c1.2-1,1.4-2.8,0.4-4C289.1,249.8,288.9,249.7,288.7,249.6"/>
	<path class="st0" d="M245.2,251.8c0-0.9-0.4-1.7-1.1-2.2l-24.4-18.5l22.9-16c1.3-0.9,1.6-2.7,0.7-4c0,0,0,0,0,0l-6.2-8.9
		c-0.9-1.3-2.7-1.6-4-0.7c0,0,0,0,0,0l-38.2,26.8c-1.3,0.9-1.6,2.7-0.7,4c0.2,0.2,0.4,0.5,0.6,0.6l25.4,19.3L199.6,269
		c-1.2,1-1.4,2.8-0.4,4l6.8,8.4c0.5,0.6,1.2,0.9,1.9,1h0.3c0.7,0,1.3-0.2,1.8-0.6l34.1-27.7C244.8,253.5,245.2,252.6,245.2,251.8"/>
	<path class="st0" d="M433.9,238.2h-11.3c-1.3,0-2.4,1.1-2.4,2.4c0,0,0,0,0,0v11.2l-15.6-12l30.3-26.7c1-0.9,1.1-2.4,0.2-3.4
		l-7.5-8.4c-0.9-1-2.4-1.1-3.4-0.2l-42.3,37.4c-1,0.9-1.1,2.4-0.2,3.4c0.1,0.1,0.2,0.2,0.3,0.3l50.4,40.4c1,0.8,2.6,0.7,3.4-0.4
		c0.3-0.4,0.5-1,0.5-1.5v-40.1C436.3,239.3,435.2,238.2,433.9,238.2L433.9,238.2"/>
	<path class="st0" d="M170,249.4h17.2c1.3,0,2.3-1,2.3-2.3v-11.9c0-1.3-1-2.3-2.3-2.3h-16.8l23.3-19.2c1-0.8,1.1-2.2,0.3-3.2
		l-7.3-9.3c-0.8-1-2.2-1.2-3.2-0.4c0,0,0,0,0,0l-46.5,38.5c-1,0.8-1.1,2.3-0.3,3.2c0.1,0.1,0.2,0.2,0.3,0.3l45.9,39.1
		c0.4,0.4,0.9,0.5,1.5,0.5h0.2c0.6-0.1,1.2-0.4,1.6-0.8l7.4-9.1c0.8-1,0.7-2.4-0.3-3.2L170,249.4z"/>
	<path class="st0" d="M117.7,249.7l18.9-13.1c1.1-0.7,1.4-2.2,0.7-3.3c-0.2-0.3-0.4-0.5-0.7-0.7l-46.1-32c-1.1-0.8-2.6-0.5-3.4,0.6
		c-0.3,0.4-0.4,0.9-0.4,1.4v77.4c0,1.3,1.1,2.4,2.4,2.4h0h11.2c1.3,0,2.4-1.1,2.4-2.4l0,0v-20.6l1.5-1.1l19,23.1
		c0.8,1,2.3,1.2,3.3,0.4l8.9-6.9c1.1-0.8,1.2-2.3,0.4-3.4c0,0,0,0-0.1-0.1L117.7,249.7z M110.8,234.4l-8,5.7v-11.5L110.8,234.4z"/>
	<path class="st0" d="M83.2,240.6L43,205.1c-0.1-0.1-0.2-0.2-0.4-0.3l-7.4-6.5c-1-0.8-2.4-0.6-3.2,0.4c-0.3,0.4-0.5,0.9-0.5,1.4
		v80.7c0,1.3,1,2.3,2.3,2.3c0.5,0,1-0.2,1.4-0.5l47.9-38.4c1-0.8,1.1-2.2,0.3-3.2C83.4,240.8,83.3,240.7,83.2,240.6 M46.8,253.4
		v-24.5L61.6,242L46.8,253.4z"/>
	<path class="st0" d="M177.4,154.2l18.5-12.8c1.1-0.7,1.3-2.2,0.6-3.3c-0.2-0.2-0.4-0.4-0.6-0.6l-45-31.2c-1.1-0.7-2.5-0.5-3.3,0.6
		c-0.3,0.4-0.4,0.9-0.4,1.4v75.6c0,1.3,1.1,2.4,2.3,2.4h0h11c1.3,0,2.4-1.1,2.4-2.3v0v-20.1l1.5-1l18.5,22.6c0.8,1,2.2,1.1,3.2,0.4
		l8.7-6.7c1-0.8,1.2-2.3,0.4-3.3c0,0,0-0.1-0.1-0.1L177.4,154.2z M170.6,139.2l-7.8,5.6v-11.2L170.6,139.2z"/>
	<path class="st0" d="M309.6,115.4l-7.2-9.1c-0.8-1-2.2-1.1-3.2-0.4c0,0,0,0,0,0l-45.7,37.8c-1,0.8-1.1,2.2-0.3,3.2
		c0.1,0.1,0.2,0.2,0.3,0.3l45.2,38.4c0.4,0.3,0.9,0.5,1.5,0.5h0.2c0.6-0.1,1.2-0.4,1.5-0.8l7.3-9c0.8-1,0.6-2.3-0.3-3.1l-23-19.6
		h16.9c1.2,0,2.3-1,2.3-2.3l0,0v-11.7c0-1.2-1-2.3-2.3-2.3l0,0h-16.4l22.9-18.9C310.3,117.7,310.4,116.4,309.6,115.4"/>
	<path class="st0" d="M136.7,142.7h-10.9c-1.3,0-2.3,1-2.3,2.3v10.9l-15.1-11.6l29.3-25.9c1-0.9,1.1-2.3,0.2-3.3l-7.2-8.1
		c-0.9-1-2.3-1.1-3.3-0.2l-41,36.2c-1,0.9-1.1,2.3-0.2,3.3c0.1,0.1,0.2,0.2,0.3,0.3l48.8,39.2c1,0.8,2.5,0.6,3.3-0.4
		c0.3-0.4,0.5-0.9,0.5-1.5V145C139,143.7,138,142.7,136.7,142.7"/>
	<path class="st0" d="M230.1,153.7h16.9c1.2,0,2.3-1,2.3-2.3v-11.7c0-1.2-1-2.3-2.3-2.3h-16.4l22.9-18.9c0.9-0.8,1.1-2.2,0.3-3.1
		l-7.2-9.1c-0.8-1-2.2-1.1-3.2-0.4c0,0,0,0,0,0l-45.7,37.8c-1,0.8-1.1,2.2-0.3,3.2c0.1,0.1,0.2,0.2,0.3,0.3l45.1,38.4
		c0.4,0.3,0.9,0.5,1.5,0.5h0.2c0.6-0.1,1.2-0.4,1.6-0.8l7.3-9c0.8-1,0.6-2.3-0.3-3.1L230.1,153.7z"/>
	<path class="st0" d="M373.4,119.8c0.1-0.6-0.1-1.3-0.5-1.8l-7.7-9.7c-0.8-1-2.3-1.2-3.4-0.4L333,130.7v-22.7c0-1.3-1.1-2.4-2.4-2.4
		l0,0h-12.4c-1.3,0-2.4,1.1-2.4,2.4c0,0,0,0,0,0v75.5c0,1.3,1.1,2.4,2.4,2.4l0,0h12.4c1.3,0,2.4-1.1,2.4-2.4v0v-23.2l28.2,25.2
		c1,0.9,2.5,0.8,3.4-0.2c0,0,0-0.1,0.1-0.1l7.9-9.6c0.8-1,0.7-2.4-0.2-3.3L342.5,145l30-23.7C373,121,373.4,120.4,373.4,119.8"/>
	<path class="st0" d="M459.2,171l-1.7-1.8c-0.8-0.9-2.2-0.9-3.1-0.1c-0.9,0.8-0.9,2.2-0.1,3.1l1.7,1.8c0.8,0.9,2.2,0.9,3.1,0.1
		C460,173.3,460,171.9,459.2,171L459.2,171"/>
	<path class="st0" d="M393.7,90.8L392,89c-0.8-0.9-2.2-0.9-3.1-0.1c-0.9,0.8-0.9,2.2-0.1,3.1l1.7,1.8c0.8,0.9,2.2,0.9,3.1,0.1
		C394.5,93.1,394.5,91.7,393.7,90.8L393.7,90.8"/>
	<path class="st0" d="M12,174.9l1.3-2.1c0.6-1.1,0.2-2.4-0.9-3c-1-0.5-2.3-0.2-2.9,0.8l-1.3,2.1c-0.6,1.1-0.2,2.4,0.9,3
		C10.1,176.2,11.4,175.9,12,174.9"/>
	<path class="st0" d="M72.3,94.3l1.3-2.1c0.6-1.1,0.3-2.4-0.8-3c-1.1-0.6-2.4-0.3-3,0.8l-1.3,2.1c-0.6,1.1-0.2,2.4,0.9,3
		C70.4,95.6,71.7,95.3,72.3,94.3"/>
</g>
</svg>
