<svg xmlns="http://www.w3.org/2000/svg" viewBox="0 0 468 468"><defs><style>.cls-1{fill:#fbd207;}.cls-2{fill:#fff;}</style></defs><title>Artboard 3</title><g id="Layer_2" data-name="Layer 2"><path class="cls-1" d="M.49,274.31.07,357.38s-1.88,18,14,18S27.62,354,27.62,346.11c0-10.44,1.88-21.29,12.73-21.29,11.28,0,11.27,14.4,11.27,24.84,0,5,1.68,14.61,13.36,14.61,11.08,0,14.19-8.77,14.19-14.19S85,339,94.2,339.43c8.34.38,16.07-3.76,16.7-12.73.6-8.54,4.17-16.49,15-16.49,10,0,12.94,7.93,12.94,18.37V357.8c0,4.59,2.5,17.53,15.44,17.53s17.95-10,17.95-16.28V335.67c0-5.43,5.43-12.52,13.36-12.52s13.57,6.68,13.57,11.27.63,20.87.63,25c0,8.56,6.26,14.19,15.45,14.19s14.61-7.1,14.61-13.36c0-3.34,3.34-16.28,13.78-16.28s19.2-4.61,20-14.83c.71-8.74,4.8-17.53,14.82-17.53s14.82,9.6,14.82,19.62v22.35c0,5,3.76,13.57,13.57,13.57s14.73-9.07,15.65-13.57c1.09-5.36,4.17-15.44,13.77-15.44s12.52,6.68,12.52,13.78v20.45c0,2.51,1.25,15,15,15s16.07-12.94,16.07-19.2.21-27.55.21-33.4,4.59-14.61,14-14.61c8.14,0,13.56,7.1,13.56,14.19s.63,19.2.63,23-.42,18,17.74,18c12.11,0,16.07-9.18,16.07-16.07s-.63-23.58,8.56-23.58S468,326.07,468,316.05V264.29"/><path class="cls-2" d="M21.39,366.86l1-2.29a2.2,2.2,0,0,0-4.06-1.69l-1,2.29a2.2,2.2,0,0,0,4.06,1.69"/><path class="cls-2" d="M73.47,356.81l1-2.29a2.2,2.2,0,0,0-4.06-1.69l-1,2.29a2.2,2.2,0,1,0,4.06,1.69"/><path class="cls-2" d="M104.74,330.84l1-2.29a2.2,2.2,0,1,0-4.06-1.69l-1,2.29a2.2,2.2,0,1,0,4.06,1.69"/><path class="cls-2" d="M166.44,363.79l1-2.29a2.2,2.2,0,1,0-4.06-1.69l-1,2.29a2.2,2.2,0,1,0,4.06,1.69"/><path class="cls-2" d="M224,364.49l1-2.29a2.2,2.2,0,0,0-4.06-1.69l-1,2.29a2.2,2.2,0,1,0,4.06,1.69"/><path class="cls-2" d="M256.63,333.21l1-2.29a2.2,2.2,0,0,0-4.06-1.69l-1,2.29a2.2,2.2,0,1,0,4.06,1.69"/><path class="cls-2" d="M316.66,356.81l1-2.29a2.2,2.2,0,1,0-4.06-1.69l-1,2.29a2.2,2.2,0,1,0,4.06,1.69"/><path class="cls-2" d="M373.48,377.05l1-2.29a2.2,2.2,0,0,0-4.06-1.69l-1,2.29a2.2,2.2,0,1,0,4.06,1.69"/><path class="cls-2" d="M436.58,364.63l1-2.29a2.2,2.2,0,1,0-4.06-1.69l-1,2.29a2.2,2.2,0,0,0,4.06,1.69"/><path class="cls-2" d="M459.83,324.84l1-2.29a2.2,2.2,0,1,0-4.06-1.69l-1,2.29a2.2,2.2,0,0,0,4.06,1.69"/><path class="cls-1" d="M61.83,144.48a16.92,16.92,0,0,1-16.91,16.86H17.3A17,17,0,0,0,.4,178.25V293.13A17,17,0,0,0,17.3,310h433.6a17,17,0,0,0,16.91-16.91V178.25a17,17,0,0,0-16.91-16.91H419.63a17,17,0,0,1-16.91-16.91l0-47a17,17,0,0,0-16.91-16.91h-307A17,17,0,0,0,61.85,97.47V144Z"/><path class="cls-2" d="M377,201.75a2.93,2.93,0,0,0-2.09-.87H364.05a2.94,2.94,0,0,0-2.94,2.9l.26,39-35.91-40.57a2.94,2.94,0,0,0-5.13,1.95l.17,75.39a2.94,2.94,0,0,0,2.94,2.93h10.84a2.94,2.94,0,0,0,2.94-2.92l.23-37.87,34.93,39.2a2.94,2.94,0,0,0,5.15-1.9l.3-75.15a2.94,2.94,0,0,0-.85-2.1"/><path class="cls-2" d="M310.85,200.73H299.91a2.89,2.89,0,0,0-2.89,2.9v76a2.89,2.89,0,0,0,2.89,2.9h10.94a2.9,2.9,0,0,0,2.9-2.9v-76a2.9,2.9,0,0,0-2.9-2.9"/><path class="cls-2" d="M288.74,249.61l-24.39-18.52,22.88-16a2.86,2.86,0,0,0,.7-4l-6.22-8.86a2.87,2.87,0,0,0-4-.7L239.5,228.3a2.87,2.87,0,0,0-.09,4.63l25.45,19.33L244.27,269a2.87,2.87,0,0,0-.41,4l6.83,8.4a2.87,2.87,0,0,0,1.93,1l.29,0a2.87,2.87,0,0,0,1.81-.64l34.1-27.74a2.86,2.86,0,0,0-.07-4.5"/><path class="cls-2" d="M245.18,251.84a2.87,2.87,0,0,0-1.13-2.23l-24.39-18.52,22.88-16a2.87,2.87,0,0,0,.7-4L237,202.19a2.87,2.87,0,0,0-4-.7L194.8,228.3a2.86,2.86,0,0,0-.09,4.63l25.45,19.33L199.58,269a2.87,2.87,0,0,0-.42,4l6.83,8.4a2.87,2.87,0,0,0,1.93,1l.29,0a2.87,2.87,0,0,0,1.81-.64l34.1-27.73a2.87,2.87,0,0,0,1.06-2.27"/><path class="cls-2" d="M433.86,238.17H422.59a2.42,2.42,0,0,0-2.42,2.42v11.22l-15.6-12,30.26-26.74a2.42,2.42,0,0,0,.21-3.41l-7.46-8.45a2.42,2.42,0,0,0-3.41-.21l-42.32,37.39a2.42,2.42,0,0,0,.09,3.7l50.41,40.45a2.42,2.42,0,0,0,3.93-1.89V240.59a2.42,2.42,0,0,0-2.42-2.42"/><path class="cls-2" d="M170,249.43h17.22a2.29,2.29,0,0,0,2.29-2.29v-11.9a2.29,2.29,0,0,0-2.29-2.29H170.47l23.27-19.25a2.3,2.3,0,0,0,.34-3.19l-7.29-9.26a2.29,2.29,0,0,0-3.26-.35l-46.48,38.46a2.29,2.29,0,0,0,0,3.51l45.89,39.08a2.3,2.3,0,0,0,1.49.55h.21a2.3,2.3,0,0,0,1.57-.84l7.41-9.15a2.3,2.3,0,0,0-.29-3.19Z"/><path class="cls-2" d="M117.71,249.73l18.9-13.08a2.41,2.41,0,0,0,0-4l-46.08-32a2.41,2.41,0,0,0-3.79,2v77.42a2.41,2.41,0,0,0,2.41,2.41h11.24a2.41,2.41,0,0,0,2.41-2.41V259.49l1.53-1.06,19,23.09a2.41,2.41,0,0,0,3.33.37l8.89-6.87a2.41,2.41,0,0,0,.38-3.45Zm-6.91-15.31-8,5.7V228.63Z"/><path class="cls-2" d="M83.21,240.65,43,205.1a2.17,2.17,0,0,0-.38-.27l-7.39-6.52a2.3,2.3,0,0,0-3.74,1.79v80.71a2.3,2.3,0,0,0,3.74,1.79l47.92-38.45a2.3,2.3,0,0,0,.08-3.51M46.78,253.35V228.89L61.61,242Z"/><path class="cls-2" d="M177.35,154.22l18.46-12.78a2.35,2.35,0,0,0,0-3.87l-45-31.25a2.35,2.35,0,0,0-3.7,1.93v75.6a2.35,2.35,0,0,0,2.35,2.35h11a2.35,2.35,0,0,0,2.35-2.35V163.76l1.49-1,18.54,22.55a2.35,2.35,0,0,0,3.25.36l8.68-6.71a2.35,2.35,0,0,0,.37-3.37Zm-6.75-15-7.81,5.56V133.62Z"/><path class="cls-2" d="M309.65,115.39l-7.17-9.11a2.26,2.26,0,0,0-3.21-.34l-45.73,37.83a2.26,2.26,0,0,0,0,3.46l45.15,38.44a2.26,2.26,0,0,0,1.46.54h.21a2.25,2.25,0,0,0,1.54-.83l7.29-9a2.26,2.26,0,0,0-.29-3.14l-23-19.55h16.94a2.26,2.26,0,0,0,2.26-2.26V139.73a2.26,2.26,0,0,0-2.26-2.26H286.42l22.89-18.94a2.26,2.26,0,0,0,.33-3.14"/><path class="cls-2" d="M136.71,142.7H125.8a2.34,2.34,0,0,0-2.34,2.34V155.9l-15.1-11.58,29.3-25.89a2.34,2.34,0,0,0,.2-3.3L130.63,107a2.34,2.34,0,0,0-3.3-.2L86.35,143a2.34,2.34,0,0,0,.08,3.58l48.81,39.16a2.34,2.34,0,0,0,3.8-1.82V145a2.34,2.34,0,0,0-2.34-2.34"/><path class="cls-2" d="M230.12,153.69h16.94a2.26,2.26,0,0,0,2.26-2.26V139.73a2.26,2.26,0,0,0-2.26-2.26H230.62l22.9-18.94a2.26,2.26,0,0,0,.33-3.13l-7.17-9.11a2.26,2.26,0,0,0-3.21-.34l-45.73,37.84a2.26,2.26,0,0,0,0,3.46l45.15,38.45a2.26,2.26,0,0,0,1.46.54h.21a2.26,2.26,0,0,0,1.55-.83l7.29-9a2.26,2.26,0,0,0-.29-3.14Z"/><path class="cls-2" d="M373.4,119.77a2.39,2.39,0,0,0-.51-1.77l-7.74-9.69a2.39,2.39,0,0,0-3.35-.38L333,130.73V108.06a2.39,2.39,0,0,0-2.39-2.39H318.19a2.39,2.39,0,0,0-2.39,2.39v75.49a2.39,2.39,0,0,0,2.39,2.39H330.6a2.39,2.39,0,0,0,2.39-2.39v-23.2l28.18,25.25a2.39,2.39,0,0,0,3.44-.26l7.88-9.59a2.39,2.39,0,0,0-.23-3.28L342.54,145l30-23.65a2.39,2.39,0,0,0,.9-1.6"/><path class="cls-2" d="M459.2,171l-1.68-1.83a2.2,2.2,0,0,0-3.23,3l1.68,1.83a2.2,2.2,0,0,0,3.23-3"/><path class="cls-2" d="M393.66,90.81,392,89a2.2,2.2,0,1,0-3.22,3l1.68,1.83a2.2,2.2,0,1,0,3.23-3"/><path class="cls-2" d="M12,174.91l1.26-2.14a2.2,2.2,0,0,0-3.8-2.21L8.2,172.7a2.2,2.2,0,0,0,3.8,2.21"/><path class="cls-2" d="M72.32,94.35l1.27-2.14A2.2,2.2,0,0,0,69.78,90l-1.27,2.14a2.2,2.2,0,0,0,3.8,2.21"/></g></svg>