<?xml version="1.0" encoding="utf-8"?>
<!-- Generator: Adobe Illustrator 26.3.1, SVG Export Plug-In . SVG Version: 6.00 Build 0)  -->
<svg version="1.1" id="Layer_1" xmlns="http://www.w3.org/2000/svg" xmlns:xlink="http://www.w3.org/1999/xlink" x="0px" y="0px"
	 viewBox="0 0 418 42" style="enable-background:new 0 0 418 42;" xml:space="preserve">
<path d="M203.4,0.9c-26-2.1-76.7,2-124.7,9.9l-11.3,1.9c-31.9,5.3-49.1,9-61.3,13.2c-4.8,1.6-5.2,1.8-5.1,2.7
	c0.1,1.2,0.8,1.1,9.6-1.2c9.1-2.4,17.1-3.9,39.2-7.5C123.6,8,157.9,4.5,195.9,5c7.5,0.1,19.2,1.7,19.2,2.6
	c-0.1,1.2-7.9,4.3-25.8,10.4c-22,7.5-35.4,12.5-36.7,13.9c-2.2,2.3-0.2,4.4,4.4,4.7c2.7,0.2,3.3,0.2,15.6-0.8
	c35.4-2.7,57.9-3.5,88.4-3.1c46.3,0.5,75.7,2.2,130.8,7.6c19.8,1.9,20.8,2,24.6,1.3l0.1,0c1.2-0.2,1.5-1.8,0.4-2.3
	c-2.9-1.3-4.9-1.6-22-3.3c-57.5-5.6-87.9-7.4-132.1-7.8c-23.2-0.3-33.6-0.1-50.6,0.7c-11.6,0.5-42.4,2.5-46.7,3
	c-2.4,0.3,8.1-3.6,26.5-9.8c23.2-7.8,27.9-10.1,28.3-14C220.7,3.6,216.7,2,203.4,0.9L203.4,0.9z"/>
</svg>
